<svg viewBox="0 0 13 13" fill="none" xmlns="http://www.w3.org/2000/svg"><path fill-rule="evenodd" clip-rule="evenodd" d="M6.4 0C4.66 0 4.44 0 3.76.04a4.7 4.7 0 0 0-1.55.3A3.14 3.14 0 0 0 .34 2.2c-.16.4-.27.87-.3 1.55C0 4.44 0 4.66 0 6.4c0 1.74 0 1.96.04 2.64.03.68.14 1.14.3 1.55a3.13 3.13 0 0 0 1.87 1.87c.4.16.87.27 1.55.3.68.03.9.04 2.64.04 1.74 0 1.96 0 2.64-.04a4.7 4.7 0 0 0 1.55-.3 3.14 3.14 0 0 0 1.87-1.87c.16-.4.27-.87.3-1.55.03-.68.04-.9.04-2.64 0-1.74 0-1.96-.04-2.64a4.74 4.74 0 0 0-.3-1.55 3.14 3.14 0 0 0-.73-1.14 3.13 3.13 0 0 0-1.14-.73c-.4-.16-.87-.27-1.55-.3C8.35 0 8.14 0 6.4 0Zm-.57 1.15h.57c1.7 0 1.91 0 2.59.04.62.03.96.13 1.19.22.3.12.5.26.73.48.22.22.36.44.48.74.09.22.2.56.22 1.18.03.68.04.88.04 2.59 0 1.7-.01 1.9-.04 2.58-.03.63-.13.97-.22 1.2-.12.3-.26.5-.48.73-.22.22-.44.36-.73.48-.23.08-.57.19-1.2.22-.67.03-.87.03-2.58.03-1.7 0-1.91 0-2.59-.03a3.55 3.55 0 0 1-1.18-.22c-.3-.12-.52-.26-.74-.48a1.98 1.98 0 0 1-.48-.74c-.09-.22-.2-.56-.22-1.19-.03-.67-.04-.87-.04-2.58s.01-1.91.04-2.59c.03-.62.13-.96.22-1.19.12-.3.26-.5.48-.73.22-.23.44-.37.74-.48.22-.09.56-.2 1.18-.22.6-.03.82-.04 2.02-.04Zm3.99 1.07a.77.77 0 1 0 0 1.53.77.77 0 0 0 0-1.53Zm-3.42.9a3.29 3.29 0 1 0 0 6.57 3.29 3.29 0 0 0 0-6.58Zm0 1.15a2.13 2.13 0 1 1 0 4.26 2.13 2.13 0 0 1 0-4.26Z" /></svg>