<svg viewBox="0 0 190 24" fill="none" xmlns="http://www.w3.org/2000/svg"><path fill-rule="evenodd" clip-rule="evenodd" d="m65.5 23.02 18.23-.2.22-3.4H69.12L68.93.22 65.5 0v23.02ZM91.58.39a5.91 5.91 0 0 0-3.6 2.42c-.57.85-.64 1.92-.64 8.76 0 7.36.04 7.85.76 8.8a8 8 0 0 0 1.98 1.74c1.12.65 1.87.72 8.44.72 7.9 0 8.65-.16 10.29-2.24l.78-1-8.9-.17c-10.34-.21-9.93-.05-9.93-3.83v-2.25l11.73-.2V9.9l-11.73-.2V7.47c0-3.98-.34-3.84 9.77-3.84 7.56 0 8.64-.07 8.64-.56 0-.95-1.79-2.25-3.66-2.65C103.5 0 93.38-.03 91.59.4Zm27.58-.02a5.54 5.54 0 0 0-3.95 2.92c-.55 1.08-.63 2.39-.63 10.48V23h3.6v-9.7h11.56V9.74h-11.55V7.48c0-3.86-.01-3.85 7.42-3.85 5.81 0 6.35.05 7.01.72.69.68.72 1.2.72 9.69V23H137l-.12-9.67c-.1-9.17-.14-9.71-.87-10.67C134.4.5 133.41.24 126.67.16c-3.37-.04-6.75.05-7.51.2Zm26.03-.01c-3.12.65-4.4 2.49-4.42 6.33 0 2.97.75 4.58 2.7 5.72 1.1.65 2 .74 8.1.85 8.04.15 8.12.18 8.12 3.14 0 3-.04 3.02-10 3.02-4.63 0-8.4.12-8.4.28 0 .7 1.29 2 2.47 2.49 1.7.7 10.49 1.03 14.08.52 3.99-.56 5.55-2.35 5.55-6.35 0-2.76-.82-4.56-2.57-5.63-1.21-.75-1.8-.82-7.8-.92-3.58-.06-6.85-.18-7.27-.27-1.62-.34-2.07-4.4-.62-5.46.46-.33 2.9-.45 9.21-.45 4.73 0 8.6-.13 8.6-.28 0-.61-1.2-1.91-2.28-2.49-.94-.5-2.34-.63-7.65-.7-3.57-.04-7.09.05-7.82.2ZM172 .38a7.4 7.4 0 0 0-2.16 1c-1.88 1.38-2.03 2.17-2.03 10.14 0 6.74.06 7.47.73 8.62 1.37 2.34 2.68 2.69 10.27 2.69 3.68 0 7.12-.13 7.66-.28 1.05-.29 3.53-2.27 3.53-2.81 0-.18-3.77-.32-8.6-.32-6.76 0-8.73-.1-9.27-.5-.53-.39-.72-1.07-.83-3.05l-.15-2.55h11.63v-3.6h-11.63l.15-2.54c.11-1.99.3-2.66.83-3.05.54-.4 2.51-.5 9.28-.5 4.72 0 8.59-.09 8.59-.2 0-.57-1.34-2.07-2.3-2.59-.92-.48-2.4-.6-7.8-.68-3.68-.05-7.23.05-7.9.22Z" /><path d="M.57 3.1C1.23 1.7 2.32.9 4.22.42 4.96.25 8.4.13 11.86.17c7.08.09 8.1.39 9.51 2.77.69 1.16.73 1.83.73 10.55v9.31l-3.41.22V14.6c0-8.19-.2-10.06-1.2-10.69-.23-.14-3.15-.27-6.5-.27-7.4 0-7.4-.01-7.4 3.63v2.45h11.5v3.58H3.63l-.2 9.49-3.42.22v-9.37C0 5.85.1 4.1.57 3.1ZM27.41 3.02a5.28 5.28 0 0 1 3.8-2.64C31.93.23 35.44.14 39 .2c5.29.07 6.68.2 7.61.7 1.09.57 2.27 1.86 2.27 2.48 0 .15-3.87.27-8.6.27-9.5 0-9.5 0-9.92 2.27-.12.65-.17 3.6-.1 6.58.15 7.4-.45 6.9 8.43 6.9h6.96V9.74h3.23v10.33l-1.1 1.09c-1.46 1.46-2.65 1.65-10.22 1.65-5.87 0-6.6-.07-7.9-.75-2.68-1.4-2.88-2.16-2.88-10.53 0-6.35.08-7.5.63-8.5ZM54.72 11.88c-.06-6-.02-11.12.07-11.37.1-.27.83-.45 1.8-.45h1.64v22.96l-3.42-.22-.1-10.92Z" fill="#F24210"/></svg>