<svg viewBox="0 0 18 18" fill="none" xmlns="http://www.w3.org/2000/svg"><path opacity=".7" d="M13.44 13.44h1.78A1.78 1.78 0 0 0 17 11.67V8.1a1.78 1.78 0 0 0-1.78-1.78H2.78A1.78 1.78 0 0 0 1 8.11v3.56a1.78 1.78 0 0 0 1.78 1.77h1.78M6.33 17h5.34a1.78 1.78 0 0 0 1.77-1.78v-3.55a1.78 1.78 0 0 0-1.77-1.78H6.33a1.78 1.78 0 0 0-1.77 1.78v3.55A1.78 1.78 0 0 0 6.33 17Zm7.11-10.67V2.78A1.78 1.78 0 0 0 11.67 1H6.33a1.78 1.78 0 0 0-1.77 1.78v3.55h8.88Z" stroke-linecap="round" stroke-linejoin="round"/></svg>