<svg viewBox="0 0 211 161" fill="none" xmlns="http://www.w3.org/2000/svg">
<mask id="path-1-inside-1_77_247" fill="white">
<path fill-rule="evenodd" clip-rule="evenodd" d="M21.1862 0.538945C20.8045 0.921696 20.6357 3.31619 20.6357 8.34348C20.6357 15.043 20.7032 15.6323 21.5229 16.0721C22.7284 16.7189 23.1981 16.6729 24.0435 15.8255C24.6361 15.2307 24.7641 13.8451 24.7641 8.02099C24.7641 1.4903 24.6949 0.902378 23.877 0.463042C22.7109 -0.162608 21.8619 -0.138689 21.1862 0.538945ZM42.0804 0.483743C41.3708 0.898237 41.2776 1.77507 41.2776 8.02743C41.2776 13.846 41.4056 15.2307 41.9983 15.8255C42.8437 16.6729 43.3134 16.7189 44.5189 16.0721C45.3386 15.6323 45.406 15.043 45.406 8.34348C45.406 0.955741 45.1918 -0.0305797 43.5941 0.000702804C43.2033 0.00852344 42.5221 0.225662 42.0804 0.483743ZM166.138 0.538945C165.757 0.921696 165.588 3.31619 165.588 8.34348C165.588 15.043 165.655 15.6323 166.475 16.0721C167.68 16.7189 168.15 16.6729 168.996 15.8255C169.588 15.2307 169.716 13.8451 169.716 8.02099C169.716 1.4903 169.647 0.902378 168.829 0.463042C167.663 -0.162608 166.814 -0.138689 166.138 0.538945ZM187.032 0.483743C186.323 0.898237 186.23 1.77507 186.23 8.02743C186.23 13.846 186.358 15.2307 186.95 15.8255C187.796 16.6729 188.265 16.7189 189.471 16.0721C190.291 15.6323 190.358 15.043 190.358 8.34348C190.358 0.955741 190.144 -0.0305797 188.546 0.000702804C188.155 0.00852344 187.474 0.225662 187.032 0.483743ZM31.4865 9.10898C30.8686 9.79352 30.7273 10.98 30.7273 15.4782C30.7273 20.2492 30.842 21.1104 31.5663 21.7674C32.6567 22.7569 33.6131 22.7311 34.5553 21.6873C35.1731 21.0028 35.3144 19.8163 35.3144 15.3181C35.3144 10.5471 35.1997 9.68586 34.4754 9.02893C33.3851 8.03939 32.4287 8.06516 31.4865 9.10898ZM176.439 9.10898C175.821 9.79352 175.679 10.98 175.679 15.4782C175.679 20.2492 175.794 21.1104 176.518 21.7674C177.609 22.7569 178.565 22.7311 179.507 21.6873C180.125 21.0028 180.266 19.8163 180.266 15.3181C180.266 10.5471 180.152 9.68586 179.428 9.02893C178.337 8.03939 177.381 8.06516 176.439 9.10898ZM93.6622 16.6402C93.2829 17.0207 93.1118 19.3494 93.1118 24.1389C93.1118 31.4277 93.3072 32.1895 95.176 32.1895C97.0447 32.1895 97.2401 31.4277 97.2401 24.1389C97.2401 16.85 97.0447 16.0882 95.176 16.0882C94.6461 16.0882 93.965 16.3366 93.6622 16.6402ZM114.304 16.6402C113.534 17.4122 113.534 30.8655 114.304 31.6375C114.607 31.9411 115.288 32.1895 115.818 32.1895C117.687 32.1895 117.882 31.4277 117.882 24.1389C117.882 16.85 117.687 16.0882 115.818 16.0882C115.288 16.0882 114.607 16.3366 114.304 16.6402ZM103.678 25.2586C103.417 25.7481 103.203 28.4531 103.203 31.2694C103.203 37.1041 103.557 38.17 105.497 38.17C107.436 38.17 107.79 37.1041 107.79 31.2694C107.79 25.4348 107.436 24.3689 105.497 24.3689C104.638 24.3689 103.982 24.69 103.678 25.2586ZM11.7891 26.7841C11.1762 27.245 10.9992 28.3155 10.8987 32.1716L10.7735 36.984L9.29416 37.2867C6.29374 37.8999 3.98918 40.3662 3.37635 43.6196C2.70572 47.178 5.30247 51.0929 8.98911 52.082L11.0028 52.622L11.0129 57.7018C11.0207 61.6383 11.2125 63.196 11.8648 64.6221C13.6528 68.5315 17.2482 70.8055 21.6678 70.8225L24.3054 70.8326V87.1639V103.495H19.7183H15.1312V100.133C15.1312 94.9837 15.1326 94.9846 7.35336 94.9846C2.09655 94.9846 0.79611 95.1143 0.442904 95.6746C0.182358 96.0877 0.00483702 106.561 0.000708634 121.766C-0.006172 146.412 0.0199747 147.18 0.880972 147.643C1.36904 147.904 4.45386 148.119 7.73592 148.119C13.3822 148.119 13.7413 148.064 14.417 147.096C14.8216 146.517 15.1312 145.121 15.1312 143.876V141.678H17.4248H19.7183V143.876C19.7183 145.121 20.0279 146.517 20.4325 147.096C21.1389 148.108 21.2701 148.119 33.0209 148.119C44.7716 148.119 44.9028 148.108 45.6092 147.096C46.0138 146.517 46.3234 145.121 46.3234 143.876V141.678H48.617H50.9105V143.876C50.9105 145.121 51.2202 146.517 51.6247 147.096C52.3004 148.064 52.6596 148.119 58.3058 148.119C61.5879 148.119 64.6727 147.904 65.1608 147.643C65.9842 147.201 66.0479 146.607 66.0479 139.362V131.558H69.2589H72.4699V145.727C72.4699 156.134 72.6162 160.043 73.0203 160.448C73.3951 160.824 75.5831 161 79.8748 161C85.8697 161 86.2142 160.95 86.893 159.977C87.2976 159.399 87.6073 158.002 87.6073 156.757V154.559H89.9008H92.1943V157.018C92.1943 161.076 91.9388 161 105.622 161C117.244 161 117.379 160.989 118.085 159.977C118.49 159.399 118.799 158.002 118.799 156.757V154.559H121.093H123.387V156.757C123.387 158.002 123.696 159.399 124.101 159.977C124.78 160.95 125.124 161 131.119 161C135.411 161 137.599 160.824 137.974 160.448C138.378 160.043 138.524 156.134 138.524 145.727V131.558H141.735H144.946V139.362C144.946 146.607 145.01 147.201 145.833 147.643C146.321 147.904 149.406 148.119 152.688 148.119C158.334 148.119 158.693 148.064 159.369 147.096C159.774 146.517 160.083 145.121 160.083 143.876V141.678H162.377H164.67V143.876C164.67 145.121 164.98 146.517 165.385 147.096C166.091 148.108 166.222 148.119 177.973 148.119C189.724 148.119 189.855 148.108 190.561 147.096C190.966 146.517 191.276 145.121 191.276 143.876V141.678H193.569H195.863V143.876C195.863 145.121 196.172 146.517 196.577 147.096C197.252 148.064 197.612 148.119 203.258 148.119C206.54 148.119 209.625 147.904 210.113 147.643C210.973 147.18 211 146.407 211 121.661V96.1558L209.876 95.417C208.958 94.8139 207.689 94.7067 202.957 94.8314C195.961 95.0163 195.863 95.0899 195.863 100.133V103.495H191.292H186.721L186.59 98.8286C186.487 95.1566 186.303 94.064 185.727 93.7006C184.623 93.0041 182.71 93.6716 182.392 94.8645C182.239 95.4368 182.111 101.546 182.108 108.441L182.101 120.977H177.973H173.845V95.9046V70.8326H177.973H182.101V75.1004C182.101 79.6722 182.732 81.4135 184.388 81.4135C186.236 81.4135 186.688 80.2307 186.688 75.4003V70.8326L189.326 70.8225C193.746 70.8055 197.341 68.5315 199.129 64.6221C199.781 63.196 199.973 61.6383 199.981 57.7018L199.991 52.622L202.005 52.082C209.636 50.0348 209.406 38.8623 201.7 37.2867L200.22 36.984L200.095 32.1716C199.995 28.3155 199.818 27.245 199.205 26.7841C198.096 25.9509 157.85 25.9509 156.741 26.7841C156.128 27.245 155.951 28.3155 155.851 32.1716L155.726 36.984L154.349 37.2669C152.284 37.692 151.077 38.4699 149.724 40.2494C146.392 44.6307 148.994 51.1499 154.517 52.2577L155.955 52.5461V57.7975C155.955 62.212 156.107 63.3483 156.911 64.9285C158.839 68.7188 162.277 70.8059 166.62 70.8225L169.257 70.8326V87.1639V103.495H164.67H160.083V100.133C160.083 95.1046 159.966 95.0159 153.126 94.836C149.896 94.7509 146.928 94.8939 146.207 95.1695L144.946 95.6516V106.014V116.376H141.735H138.524V112.788C138.524 110.611 138.307 108.983 137.974 108.648C137.597 108.27 135.357 108.096 130.88 108.096C123.209 108.096 123.387 107.976 123.387 113.126V116.376H118.799H114.212V101.195V86.0138H116.909C121.102 86.0138 124.158 84.3881 126.221 81.0611C127.141 79.5761 127.317 78.5681 127.515 73.6204L127.744 67.898L129.333 67.4863C132.707 66.6127 135.293 63.374 135.293 60.0217C135.293 56.6695 132.708 53.4313 129.333 52.5567L127.744 52.1445L127.612 47.5984C127.539 45.0977 127.256 42.7814 126.982 42.4511C126.252 41.5687 84.7417 41.5687 84.0114 42.4511C83.738 42.7814 83.4546 45.0977 83.3821 47.5984L83.2495 52.1445L81.661 52.5567C78.2863 53.4313 75.701 56.6695 75.701 60.0217C75.701 63.374 78.2867 66.6127 81.661 67.4863L83.2495 67.898L83.4789 73.6204C83.677 78.5681 83.8527 79.5761 84.7729 81.0611C86.8357 84.3881 89.8921 86.0138 94.0851 86.0138H96.7814V101.195V116.376H92.1943H87.6073V113.126C87.6073 107.976 87.7848 108.096 80.1142 108.096C75.6363 108.096 73.3969 108.27 73.0203 108.648C72.6864 108.983 72.4699 110.611 72.4699 112.788V116.376H69.2589H66.0479V106.014V95.6516L64.7865 95.1695C64.0663 94.8939 61.098 94.7509 57.8678 94.836C51.0275 95.0159 50.9105 95.1046 50.9105 100.133V103.495H46.3234H41.7364V87.1639V70.8326L44.3739 70.8225C47.4019 70.811 50.045 69.7621 52.0082 67.7932C54.4073 65.3872 55.0178 63.3405 55.0288 57.6641L55.0389 52.5461L56.477 52.2577C62.0003 51.1499 64.6021 44.6307 61.2696 40.2494C59.9164 38.4699 58.7095 37.692 56.6444 37.2669L55.2683 36.984L55.143 32.1716C54.9898 26.2941 54.9132 26.209 49.778 26.209C45.7858 26.209 44.0299 26.9097 44.0299 28.5023C44.0299 30.1074 45.2964 30.8094 48.1908 30.8094H50.9105V33.7996V36.7899H33.0209H15.1312V33.7996V30.8094H23.8141C31.0957 30.8094 32.6131 30.6925 33.2177 30.0867C34.175 29.1261 34.1291 27.9047 33.0993 26.9704C32.3736 26.3116 30.9324 26.209 22.4073 26.209C15.2386 26.209 12.3459 26.3659 11.7891 26.7841ZM195.863 33.7996V36.7899H177.973H160.083V33.7996V30.8094H177.973H195.863V33.7996ZM57.0412 42.3439C58.46 43.4632 58.6742 45.6778 57.4907 46.9894C56.7738 47.7838 55.4073 47.8308 32.9759 47.8308H9.21984L8.50609 46.8081C7.41024 45.2398 7.60977 43.4411 9.00058 42.3439C10.1863 41.4082 10.6373 41.3902 33.0209 41.3902C55.4045 41.3902 55.8554 41.4082 57.0412 42.3439ZM201.993 42.3439C203.384 43.4411 203.584 45.2398 202.488 46.8081L201.774 47.8308H178.098C156.71 47.8308 154.341 47.7572 153.583 47.0694C152.299 45.9046 152.488 43.4995 153.953 42.3439C155.138 41.4082 155.589 41.3902 177.973 41.3902C200.357 41.3902 200.807 41.4082 201.993 42.3439ZM123.293 49.0959L123.157 52.2011H105.497H87.8366L87.7008 49.0959L87.5655 45.9906H105.497H123.428L123.293 49.0959ZM50.9105 56.8162C50.9105 61.9769 50.2427 63.9725 48.0711 65.3002C46.639 66.1761 45.7858 66.229 33.0209 66.229C20.2559 66.229 19.4027 66.1761 17.9706 65.3002C15.7991 63.9725 15.1312 61.9769 15.1312 56.8162V52.4311H33.0209H50.9105V56.8162ZM195.863 56.8162C195.863 61.9769 195.195 63.9725 193.023 65.3002C191.591 66.1761 190.738 66.229 177.973 66.229C165.208 66.229 164.355 66.1761 162.923 65.3002C160.751 63.9725 160.083 61.9769 160.083 56.8162V52.4311H177.973H195.863V56.8162ZM129.86 57.7685C130.994 58.7976 130.991 61.2491 129.854 62.2805C129.053 63.0074 127.066 63.0723 105.497 63.0723C83.928 63.0723 81.9408 63.0074 81.1399 62.2805C79.5037 60.7955 80.2812 57.6378 82.4468 56.9763C82.7619 56.8802 93.3641 56.8424 106.007 56.8921C126.964 56.9749 129.071 57.0522 129.86 57.7685ZM123.157 72.7556C123.157 77.0013 123.028 77.8454 122.207 78.9661C120.182 81.7309 119.371 81.8721 105.497 81.8721C94.3929 81.8721 92.6939 81.776 91.3095 81.0675C88.5238 79.6432 87.8568 78.2204 87.6774 73.3187C87.5898 70.9265 87.6357 68.6617 87.7797 68.2854C88.0059 67.6938 90.409 67.6174 105.599 67.7219L123.157 67.8424V72.7556ZM37.1493 95.9046V120.977H33.0209H28.8925V95.9046V70.8326H33.0209H37.1493V95.9046ZM109.625 110.166V133.858H105.497H101.369V110.166V86.4739H105.497H109.625V110.166ZM10.5441 121.437V143.518H7.33317H4.12221V121.437V99.3549H7.33317H10.5441V121.437ZM61.9195 121.437V143.518H58.7086H55.4976V121.437V99.3549H58.7086H61.9195V121.437ZM155.496 121.437V143.518H152.285H149.074V121.437V99.3549H152.285H155.496V121.437ZM206.872 121.437V143.518H203.661H200.45V121.437V99.3549H203.661H206.872V121.437ZM24.3054 111.086V114.076H19.7183H15.1312V111.086V108.096H19.7183H24.3054V111.086ZM50.9105 111.086V114.076H46.3234H41.7364V111.086V108.096H46.3234H50.9105V111.086ZM169.257 111.086V114.076H164.67H160.083V111.086V108.096H164.67H169.257V111.086ZM195.863 111.086V114.076H191.276H186.688V111.086V108.096H191.276H195.863V111.086ZM83.0202 134.318V156.4H79.8092H76.5982V134.318V112.236H79.8092H83.0202V134.318ZM134.396 134.318V156.4H131.185H127.974V134.318V112.236H131.185H134.396V134.318ZM24.3054 119.827C24.3054 120.798 24.0912 120.977 22.9293 120.977C20.8119 120.977 19.7183 122.387 19.7183 125.117V127.417H17.4248H15.1312V123.047V118.676H19.7183H24.3054V119.827ZM50.9105 123.047V127.417H48.617H46.3234V125.117C46.3234 122.387 45.2299 120.977 43.1125 120.977C41.9506 120.977 41.7364 120.798 41.7364 119.827V118.676H46.3234H50.9105V123.047ZM169.257 119.827C169.257 120.798 169.043 120.977 167.881 120.977C165.764 120.977 164.67 122.387 164.67 125.117V127.417H162.377H160.083V123.047V118.676H164.67H169.257V119.827ZM195.863 123.047V127.417H193.569H191.276V125.117C191.276 122.387 190.182 120.977 188.065 120.977C186.903 120.977 186.688 120.798 186.688 119.827V118.676H191.276H195.863V123.047ZM72.0111 123.967V126.957H69.2589H66.5066V123.967V120.977H69.2589H72.0111V123.967ZM96.7814 123.967V126.957H92.1943H87.6073V123.967V120.977H92.1943H96.7814V123.967ZM123.387 123.967V126.957H118.799H114.212V123.967V120.977H118.799H123.387V123.967ZM144.487 123.967V126.957H141.735H138.983V123.967V120.977H141.735H144.487V123.967ZM41.7364 134.548V143.518H33.0209H24.3054V134.548V125.577H33.0209H41.7364V134.548ZM186.688 134.548V143.518H177.973H169.257V134.548V125.577H177.973H186.688V134.548ZM96.7814 132.708C96.7814 133.679 96.5672 133.858 95.4053 133.858C93.2879 133.858 92.1943 135.268 92.1943 137.998V140.298H89.9008H87.6073V135.928V131.558H92.1943H96.7814V132.708ZM123.387 135.928V140.298H121.093H118.799V137.998C118.799 135.268 117.706 133.858 115.589 133.858C114.427 133.858 114.212 133.679 114.212 132.708V131.558H118.799H123.387V135.928ZM19.7183 134.548V137.078H17.4248H15.1312V134.548V132.018H17.4248H19.7183V134.548ZM50.9105 134.548V137.078H48.617H46.3234V134.548V132.018H48.617H50.9105V134.548ZM164.67 134.548V137.078H162.377H160.083V134.548V132.018H162.377H164.67V134.548ZM195.863 134.548V137.078H193.569H191.276V134.548V132.018H193.569H195.863V134.548ZM114.212 147.429V156.4H105.497H96.7814V147.429V138.458H105.497H114.212V147.429ZM92.1943 147.429V149.959H89.9008H87.6073V147.429V144.899H89.9008H92.1943V147.429ZM123.387 147.429V149.959H121.093H118.799V147.429V144.899H121.093H123.387V147.429Z"/>
</mask>
<path fill-rule="evenodd" clip-rule="evenodd" d="M21.1862 0.538945C20.8045 0.921696 20.6357 3.31619 20.6357 8.34348C20.6357 15.043 20.7032 15.6323 21.5229 16.0721C22.7284 16.7189 23.1981 16.6729 24.0435 15.8255C24.6361 15.2307 24.7641 13.8451 24.7641 8.02099C24.7641 1.4903 24.6949 0.902378 23.877 0.463042C22.7109 -0.162608 21.8619 -0.138689 21.1862 0.538945ZM42.0804 0.483743C41.3708 0.898237 41.2776 1.77507 41.2776 8.02743C41.2776 13.846 41.4056 15.2307 41.9983 15.8255C42.8437 16.6729 43.3134 16.7189 44.5189 16.0721C45.3386 15.6323 45.406 15.043 45.406 8.34348C45.406 0.955741 45.1918 -0.0305797 43.5941 0.000702804C43.2033 0.00852344 42.5221 0.225662 42.0804 0.483743ZM166.138 0.538945C165.757 0.921696 165.588 3.31619 165.588 8.34348C165.588 15.043 165.655 15.6323 166.475 16.0721C167.68 16.7189 168.15 16.6729 168.996 15.8255C169.588 15.2307 169.716 13.8451 169.716 8.02099C169.716 1.4903 169.647 0.902378 168.829 0.463042C167.663 -0.162608 166.814 -0.138689 166.138 0.538945ZM187.032 0.483743C186.323 0.898237 186.23 1.77507 186.23 8.02743C186.23 13.846 186.358 15.2307 186.95 15.8255C187.796 16.6729 188.265 16.7189 189.471 16.0721C190.291 15.6323 190.358 15.043 190.358 8.34348C190.358 0.955741 190.144 -0.0305797 188.546 0.000702804C188.155 0.00852344 187.474 0.225662 187.032 0.483743ZM31.4865 9.10898C30.8686 9.79352 30.7273 10.98 30.7273 15.4782C30.7273 20.2492 30.842 21.1104 31.5663 21.7674C32.6567 22.7569 33.6131 22.7311 34.5553 21.6873C35.1731 21.0028 35.3144 19.8163 35.3144 15.3181C35.3144 10.5471 35.1997 9.68586 34.4754 9.02893C33.3851 8.03939 32.4287 8.06516 31.4865 9.10898ZM176.439 9.10898C175.821 9.79352 175.679 10.98 175.679 15.4782C175.679 20.2492 175.794 21.1104 176.518 21.7674C177.609 22.7569 178.565 22.7311 179.507 21.6873C180.125 21.0028 180.266 19.8163 180.266 15.3181C180.266 10.5471 180.152 9.68586 179.428 9.02893C178.337 8.03939 177.381 8.06516 176.439 9.10898ZM93.6622 16.6402C93.2829 17.0207 93.1118 19.3494 93.1118 24.1389C93.1118 31.4277 93.3072 32.1895 95.176 32.1895C97.0447 32.1895 97.2401 31.4277 97.2401 24.1389C97.2401 16.85 97.0447 16.0882 95.176 16.0882C94.6461 16.0882 93.965 16.3366 93.6622 16.6402ZM114.304 16.6402C113.534 17.4122 113.534 30.8655 114.304 31.6375C114.607 31.9411 115.288 32.1895 115.818 32.1895C117.687 32.1895 117.882 31.4277 117.882 24.1389C117.882 16.85 117.687 16.0882 115.818 16.0882C115.288 16.0882 114.607 16.3366 114.304 16.6402ZM103.678 25.2586C103.417 25.7481 103.203 28.4531 103.203 31.2694C103.203 37.1041 103.557 38.17 105.497 38.17C107.436 38.17 107.79 37.1041 107.79 31.2694C107.79 25.4348 107.436 24.3689 105.497 24.3689C104.638 24.3689 103.982 24.69 103.678 25.2586ZM11.7891 26.7841C11.1762 27.245 10.9992 28.3155 10.8987 32.1716L10.7735 36.984L9.29416 37.2867C6.29374 37.8999 3.98918 40.3662 3.37635 43.6196C2.70572 47.178 5.30247 51.0929 8.98911 52.082L11.0028 52.622L11.0129 57.7018C11.0207 61.6383 11.2125 63.196 11.8648 64.6221C13.6528 68.5315 17.2482 70.8055 21.6678 70.8225L24.3054 70.8326V87.1639V103.495H19.7183H15.1312V100.133C15.1312 94.9837 15.1326 94.9846 7.35336 94.9846C2.09655 94.9846 0.79611 95.1143 0.442904 95.6746C0.182358 96.0877 0.00483702 106.561 0.000708634 121.766C-0.006172 146.412 0.0199747 147.18 0.880972 147.643C1.36904 147.904 4.45386 148.119 7.73592 148.119C13.3822 148.119 13.7413 148.064 14.417 147.096C14.8216 146.517 15.1312 145.121 15.1312 143.876V141.678H17.4248H19.7183V143.876C19.7183 145.121 20.0279 146.517 20.4325 147.096C21.1389 148.108 21.2701 148.119 33.0209 148.119C44.7716 148.119 44.9028 148.108 45.6092 147.096C46.0138 146.517 46.3234 145.121 46.3234 143.876V141.678H48.617H50.9105V143.876C50.9105 145.121 51.2202 146.517 51.6247 147.096C52.3004 148.064 52.6596 148.119 58.3058 148.119C61.5879 148.119 64.6727 147.904 65.1608 147.643C65.9842 147.201 66.0479 146.607 66.0479 139.362V131.558H69.2589H72.4699V145.727C72.4699 156.134 72.6162 160.043 73.0203 160.448C73.3951 160.824 75.5831 161 79.8748 161C85.8697 161 86.2142 160.95 86.893 159.977C87.2976 159.399 87.6073 158.002 87.6073 156.757V154.559H89.9008H92.1943V157.018C92.1943 161.076 91.9388 161 105.622 161C117.244 161 117.379 160.989 118.085 159.977C118.49 159.399 118.799 158.002 118.799 156.757V154.559H121.093H123.387V156.757C123.387 158.002 123.696 159.399 124.101 159.977C124.78 160.95 125.124 161 131.119 161C135.411 161 137.599 160.824 137.974 160.448C138.378 160.043 138.524 156.134 138.524 145.727V131.558H141.735H144.946V139.362C144.946 146.607 145.01 147.201 145.833 147.643C146.321 147.904 149.406 148.119 152.688 148.119C158.334 148.119 158.693 148.064 159.369 147.096C159.774 146.517 160.083 145.121 160.083 143.876V141.678H162.377H164.67V143.876C164.67 145.121 164.98 146.517 165.385 147.096C166.091 148.108 166.222 148.119 177.973 148.119C189.724 148.119 189.855 148.108 190.561 147.096C190.966 146.517 191.276 145.121 191.276 143.876V141.678H193.569H195.863V143.876C195.863 145.121 196.172 146.517 196.577 147.096C197.252 148.064 197.612 148.119 203.258 148.119C206.54 148.119 209.625 147.904 210.113 147.643C210.973 147.18 211 146.407 211 121.661V96.1558L209.876 95.417C208.958 94.8139 207.689 94.7067 202.957 94.8314C195.961 95.0163 195.863 95.0899 195.863 100.133V103.495H191.292H186.721L186.59 98.8286C186.487 95.1566 186.303 94.064 185.727 93.7006C184.623 93.0041 182.71 93.6716 182.392 94.8645C182.239 95.4368 182.111 101.546 182.108 108.441L182.101 120.977H177.973H173.845V95.9046V70.8326H177.973H182.101V75.1004C182.101 79.6722 182.732 81.4135 184.388 81.4135C186.236 81.4135 186.688 80.2307 186.688 75.4003V70.8326L189.326 70.8225C193.746 70.8055 197.341 68.5315 199.129 64.6221C199.781 63.196 199.973 61.6383 199.981 57.7018L199.991 52.622L202.005 52.082C209.636 50.0348 209.406 38.8623 201.7 37.2867L200.22 36.984L200.095 32.1716C199.995 28.3155 199.818 27.245 199.205 26.7841C198.096 25.9509 157.85 25.9509 156.741 26.7841C156.128 27.245 155.951 28.3155 155.851 32.1716L155.726 36.984L154.349 37.2669C152.284 37.692 151.077 38.4699 149.724 40.2494C146.392 44.6307 148.994 51.1499 154.517 52.2577L155.955 52.5461V57.7975C155.955 62.212 156.107 63.3483 156.911 64.9285C158.839 68.7188 162.277 70.8059 166.62 70.8225L169.257 70.8326V87.1639V103.495H164.67H160.083V100.133C160.083 95.1046 159.966 95.0159 153.126 94.836C149.896 94.7509 146.928 94.8939 146.207 95.1695L144.946 95.6516V106.014V116.376H141.735H138.524V112.788C138.524 110.611 138.307 108.983 137.974 108.648C137.597 108.27 135.357 108.096 130.88 108.096C123.209 108.096 123.387 107.976 123.387 113.126V116.376H118.799H114.212V101.195V86.0138H116.909C121.102 86.0138 124.158 84.3881 126.221 81.0611C127.141 79.5761 127.317 78.5681 127.515 73.6204L127.744 67.898L129.333 67.4863C132.707 66.6127 135.293 63.374 135.293 60.0217C135.293 56.6695 132.708 53.4313 129.333 52.5567L127.744 52.1445L127.612 47.5984C127.539 45.0977 127.256 42.7814 126.982 42.4511C126.252 41.5687 84.7417 41.5687 84.0114 42.4511C83.738 42.7814 83.4546 45.0977 83.3821 47.5984L83.2495 52.1445L81.661 52.5567C78.2863 53.4313 75.701 56.6695 75.701 60.0217C75.701 63.374 78.2867 66.6127 81.661 67.4863L83.2495 67.898L83.4789 73.6204C83.677 78.5681 83.8527 79.5761 84.7729 81.0611C86.8357 84.3881 89.8921 86.0138 94.0851 86.0138H96.7814V101.195V116.376H92.1943H87.6073V113.126C87.6073 107.976 87.7848 108.096 80.1142 108.096C75.6363 108.096 73.3969 108.27 73.0203 108.648C72.6864 108.983 72.4699 110.611 72.4699 112.788V116.376H69.2589H66.0479V106.014V95.6516L64.7865 95.1695C64.0663 94.8939 61.098 94.7509 57.8678 94.836C51.0275 95.0159 50.9105 95.1046 50.9105 100.133V103.495H46.3234H41.7364V87.1639V70.8326L44.3739 70.8225C47.4019 70.811 50.045 69.7621 52.0082 67.7932C54.4073 65.3872 55.0178 63.3405 55.0288 57.6641L55.0389 52.5461L56.477 52.2577C62.0003 51.1499 64.6021 44.6307 61.2696 40.2494C59.9164 38.4699 58.7095 37.692 56.6444 37.2669L55.2683 36.984L55.143 32.1716C54.9898 26.2941 54.9132 26.209 49.778 26.209C45.7858 26.209 44.0299 26.9097 44.0299 28.5023C44.0299 30.1074 45.2964 30.8094 48.1908 30.8094H50.9105V33.7996V36.7899H33.0209H15.1312V33.7996V30.8094H23.8141C31.0957 30.8094 32.6131 30.6925 33.2177 30.0867C34.175 29.1261 34.1291 27.9047 33.0993 26.9704C32.3736 26.3116 30.9324 26.209 22.4073 26.209C15.2386 26.209 12.3459 26.3659 11.7891 26.7841ZM195.863 33.7996V36.7899H177.973H160.083V33.7996V30.8094H177.973H195.863V33.7996ZM57.0412 42.3439C58.46 43.4632 58.6742 45.6778 57.4907 46.9894C56.7738 47.7838 55.4073 47.8308 32.9759 47.8308H9.21984L8.50609 46.8081C7.41024 45.2398 7.60977 43.4411 9.00058 42.3439C10.1863 41.4082 10.6373 41.3902 33.0209 41.3902C55.4045 41.3902 55.8554 41.4082 57.0412 42.3439ZM201.993 42.3439C203.384 43.4411 203.584 45.2398 202.488 46.8081L201.774 47.8308H178.098C156.71 47.8308 154.341 47.7572 153.583 47.0694C152.299 45.9046 152.488 43.4995 153.953 42.3439C155.138 41.4082 155.589 41.3902 177.973 41.3902C200.357 41.3902 200.807 41.4082 201.993 42.3439ZM123.293 49.0959L123.157 52.2011H105.497H87.8366L87.7008 49.0959L87.5655 45.9906H105.497H123.428L123.293 49.0959ZM50.9105 56.8162C50.9105 61.9769 50.2427 63.9725 48.0711 65.3002C46.639 66.1761 45.7858 66.229 33.0209 66.229C20.2559 66.229 19.4027 66.1761 17.9706 65.3002C15.7991 63.9725 15.1312 61.9769 15.1312 56.8162V52.4311H33.0209H50.9105V56.8162ZM195.863 56.8162C195.863 61.9769 195.195 63.9725 193.023 65.3002C191.591 66.1761 190.738 66.229 177.973 66.229C165.208 66.229 164.355 66.1761 162.923 65.3002C160.751 63.9725 160.083 61.9769 160.083 56.8162V52.4311H177.973H195.863V56.8162ZM129.86 57.7685C130.994 58.7976 130.991 61.2491 129.854 62.2805C129.053 63.0074 127.066 63.0723 105.497 63.0723C83.928 63.0723 81.9408 63.0074 81.1399 62.2805C79.5037 60.7955 80.2812 57.6378 82.4468 56.9763C82.7619 56.8802 93.3641 56.8424 106.007 56.8921C126.964 56.9749 129.071 57.0522 129.86 57.7685ZM123.157 72.7556C123.157 77.0013 123.028 77.8454 122.207 78.9661C120.182 81.7309 119.371 81.8721 105.497 81.8721C94.3929 81.8721 92.6939 81.776 91.3095 81.0675C88.5238 79.6432 87.8568 78.2204 87.6774 73.3187C87.5898 70.9265 87.6357 68.6617 87.7797 68.2854C88.0059 67.6938 90.409 67.6174 105.599 67.7219L123.157 67.8424V72.7556ZM37.1493 95.9046V120.977H33.0209H28.8925V95.9046V70.8326H33.0209H37.1493V95.9046ZM109.625 110.166V133.858H105.497H101.369V110.166V86.4739H105.497H109.625V110.166ZM10.5441 121.437V143.518H7.33317H4.12221V121.437V99.3549H7.33317H10.5441V121.437ZM61.9195 121.437V143.518H58.7086H55.4976V121.437V99.3549H58.7086H61.9195V121.437ZM155.496 121.437V143.518H152.285H149.074V121.437V99.3549H152.285H155.496V121.437ZM206.872 121.437V143.518H203.661H200.45V121.437V99.3549H203.661H206.872V121.437ZM24.3054 111.086V114.076H19.7183H15.1312V111.086V108.096H19.7183H24.3054V111.086ZM50.9105 111.086V114.076H46.3234H41.7364V111.086V108.096H46.3234H50.9105V111.086ZM169.257 111.086V114.076H164.67H160.083V111.086V108.096H164.67H169.257V111.086ZM195.863 111.086V114.076H191.276H186.688V111.086V108.096H191.276H195.863V111.086ZM83.0202 134.318V156.4H79.8092H76.5982V134.318V112.236H79.8092H83.0202V134.318ZM134.396 134.318V156.4H131.185H127.974V134.318V112.236H131.185H134.396V134.318ZM24.3054 119.827C24.3054 120.798 24.0912 120.977 22.9293 120.977C20.8119 120.977 19.7183 122.387 19.7183 125.117V127.417H17.4248H15.1312V123.047V118.676H19.7183H24.3054V119.827ZM50.9105 123.047V127.417H48.617H46.3234V125.117C46.3234 122.387 45.2299 120.977 43.1125 120.977C41.9506 120.977 41.7364 120.798 41.7364 119.827V118.676H46.3234H50.9105V123.047ZM169.257 119.827C169.257 120.798 169.043 120.977 167.881 120.977C165.764 120.977 164.67 122.387 164.67 125.117V127.417H162.377H160.083V123.047V118.676H164.67H169.257V119.827ZM195.863 123.047V127.417H193.569H191.276V125.117C191.276 122.387 190.182 120.977 188.065 120.977C186.903 120.977 186.688 120.798 186.688 119.827V118.676H191.276H195.863V123.047ZM72.0111 123.967V126.957H69.2589H66.5066V123.967V120.977H69.2589H72.0111V123.967ZM96.7814 123.967V126.957H92.1943H87.6073V123.967V120.977H92.1943H96.7814V123.967ZM123.387 123.967V126.957H118.799H114.212V123.967V120.977H118.799H123.387V123.967ZM144.487 123.967V126.957H141.735H138.983V123.967V120.977H141.735H144.487V123.967ZM41.7364 134.548V143.518H33.0209H24.3054V134.548V125.577H33.0209H41.7364V134.548ZM186.688 134.548V143.518H177.973H169.257V134.548V125.577H177.973H186.688V134.548ZM96.7814 132.708C96.7814 133.679 96.5672 133.858 95.4053 133.858C93.2879 133.858 92.1943 135.268 92.1943 137.998V140.298H89.9008H87.6073V135.928V131.558H92.1943H96.7814V132.708ZM123.387 135.928V140.298H121.093H118.799V137.998C118.799 135.268 117.706 133.858 115.589 133.858C114.427 133.858 114.212 133.679 114.212 132.708V131.558H118.799H123.387V135.928ZM19.7183 134.548V137.078H17.4248H15.1312V134.548V132.018H17.4248H19.7183V134.548ZM50.9105 134.548V137.078H48.617H46.3234V134.548V132.018H48.617H50.9105V134.548ZM164.67 134.548V137.078H162.377H160.083V134.548V132.018H162.377H164.67V134.548ZM195.863 134.548V137.078H193.569H191.276V134.548V132.018H193.569H195.863V134.548ZM114.212 147.429V156.4H105.497H96.7814V147.429V138.458H105.497H114.212V147.429ZM92.1943 147.429V149.959H89.9008H87.6073V147.429V144.899H89.9008H92.1943V147.429ZM123.387 147.429V149.959H121.093H118.799V147.429V144.899H121.093H123.387V147.429Z" fill="#F24210" stroke="#FBF8F8" stroke-width="2.4" mask="url(#path-1-inside-1_77_247)"/>
</svg>
