<svg viewBox="0 0 190 148" fill="none" xmlns="http://www.w3.org/2000/svg">
<mask id="path-1-inside-1_77_245" fill="white">
<path fill-rule="evenodd" clip-rule="evenodd" d="M60.9574 0.432358C57.7153 1.64079 55.4738 4.30398 54.95 7.57061L54.6858 9.2167H52.6852C50.4708 9.2167 48.9571 10.0006 48.9571 11.1475C48.9571 12.4988 50.0298 13.0899 52.4816 13.0899H54.7853V15.3626V17.6358L53.2031 17.8473C50.3131 18.2334 49.0857 19.4876 41.6259 29.6748C37.7129 35.0182 34.2385 39.6164 33.9051 39.893C33.4726 40.2516 31.0605 40.455 25.4891 40.6025C16.3004 40.8458 15.1988 41.1862 13.3245 44.3649L12.2393 46.2055L12.1107 57.1472L11.9817 68.0889H7.93376H3.88548V58.466C3.88548 49.6355 3.82681 48.7904 3.17483 48.2021C2.25125 47.369 1.44112 47.3906 0.643047 48.2695C0.0613905 48.9101 0 50.9884 0 70.0928C0 90.0567 0.038855 91.2427 0.710655 91.8488C1.63423 92.6819 2.44436 92.6602 3.24243 91.7814C3.80427 91.1629 3.88548 89.8657 3.88548 81.5175V71.962H7.96523H12.045V80.6503V89.3386L10.8809 90.1647C7.57008 92.515 6.51479 97.8545 8.64675 101.47C9.23501 102.467 10.2406 103.656 10.8809 104.11L12.045 104.937V110.667C12.045 117.35 12.4631 120.028 13.7733 121.74C15.5194 124.022 16.91 124.398 24.4785 124.634C30.4692 124.821 31.4681 124.947 32.8747 125.69C33.7528 126.154 40.1347 130.75 47.0567 135.904C53.9786 141.057 60.6038 145.728 61.7791 146.284L63.9162 147.295L85.1977 147.405C100.106 147.481 106.967 147.383 108.108 147.077C110.172 146.523 112.458 144.278 113.023 142.251C113.259 141.404 113.453 138.856 113.454 136.59C113.456 133.113 113.572 132.326 114.198 131.555L114.941 130.641L136.054 130.426C152.561 130.257 157.465 130.095 158.528 129.682C161.127 128.671 162.752 127.308 163.759 125.293C164.725 123.362 164.744 123.154 164.744 114.685V106.046H169.407H174.07V115.994C174.07 125.247 174.125 126.057 174.87 127.59C176.003 129.924 178.014 130.834 182.035 130.834C186.055 130.834 188.066 129.924 189.2 127.59C189.992 125.958 190 125.541 190 85.7118C190 45.882 189.992 45.4653 189.2 43.8335C188.066 41.4999 186.055 40.5894 182.035 40.5894C178.014 40.5894 176.003 41.4999 174.87 43.8335C174.125 45.3665 174.07 46.1764 174.07 55.4298V65.3776H169.62H165.171L165.055 55.7915C164.952 47.2853 164.855 46.0381 164.198 44.7185C163.103 42.5197 160.912 41.235 157.935 41.046L155.491 40.8911L155.336 30.1856C155.189 20.079 155.13 19.352 154.273 17.1795C152.287 12.146 148.255 9.72641 141.187 9.32748L137.229 9.10399L136.983 7.46758C136.847 6.56784 136.233 5.03988 135.617 4.07236C132.215 -1.27532 124.227 -1.27532 120.824 4.07236C120.209 5.03988 119.591 6.59302 119.451 7.52413L119.196 9.2167H117.533C115.81 9.2167 115.399 8.82939 115.399 7.20421C115.399 5.86022 113.419 2.71133 111.946 1.71205C109.983 0.380458 107.637 -0.226855 105.627 0.0768013C101.82 0.651192 98.5366 3.7873 98.0695 7.29522L97.8139 9.2167H95.9212C94.0729 9.2167 94.0286 9.1892 94.0286 8.04236C94.0286 2.84883 87.7419 -1.27571 82.4814 0.466055C79.5844 1.42505 76.544 4.88999 76.544 7.23287C76.544 8.82745 76.1251 9.2167 74.4097 9.2167H72.7467L72.486 7.48423C72.1363 5.15801 70.1368 2.27676 68.0954 1.15703C66.0706 0.0469799 62.8651 -0.278756 60.9574 0.432358ZM66.0897 4.39422C68.3378 5.55269 68.7699 6.87654 68.7715 12.6057L68.773 17.7377H63.7219H58.6708V12.6832C58.6708 7.00667 59.0267 5.82419 61.1182 4.55341C62.6172 3.64205 64.513 3.58124 66.0897 4.39422ZM88.8563 5.48181L90.1432 6.88157V12.3094V17.7377H85.092H80.0409V12.7932C80.0409 7.2867 80.4415 5.97719 82.5665 4.54063C83.4656 3.93293 84.1712 3.79001 85.6508 3.91705C87.2527 4.05455 87.7819 4.31289 88.8563 5.48181ZM109.386 4.5751C111.461 5.85363 111.902 7.30375 111.902 12.8579V17.7377H106.851H101.8V12.4016C101.8 6.52834 101.989 5.92567 104.273 4.53714C105.848 3.57969 107.794 3.59441 109.386 4.5751ZM130.589 4.39422C132.837 5.55269 133.269 6.87654 133.27 12.6057L133.272 17.7377H128.221H123.17V12.6832C123.17 7.00667 123.526 5.82419 125.617 4.55341C127.116 3.64205 129.012 3.58124 130.589 4.39422ZM76.1554 15.4138V17.7377H74.407H72.6585V15.4138V13.0899H74.407H76.1554V15.4138ZM97.9141 15.4138V17.7377H95.9714H94.0286V15.4138V13.0899H95.9714H97.9141V15.4138ZM119.284 15.4138V17.7377H117.536H115.787V15.4138V13.0899H117.536H119.284V15.4138ZM146.483 14.0392C148.366 14.9955 149.523 16.1156 150.503 17.9313C151.29 19.39 151.347 20.0984 151.465 30.0365C151.604 41.8458 151.723 41.3702 148.837 40.5956C147.807 40.319 147.093 39.8558 146.86 39.3108C146.659 38.8426 146.357 34.8695 146.191 30.4819C145.902 22.8859 145.842 22.4381 144.929 21.11C143.706 19.3307 141.601 18.1544 139.115 17.8608L137.157 17.6296V15.3092V12.9884L141.14 13.1685C143.899 13.2932 145.54 13.5605 146.483 14.0392ZM60.8253 22.5617C61.757 23.4905 61.7791 23.6524 61.7791 29.6047C61.7791 36.9362 62.2644 38.4552 65.0336 39.7915C66.6581 40.5754 67.1963 40.5894 95.9714 40.5894C124.746 40.5894 125.285 40.5754 126.909 39.7915C129.661 38.4638 130.164 36.9176 130.164 29.7859V23.8751L131.299 22.743C132.389 21.6569 132.58 21.6108 135.981 21.6108C139.72 21.6108 141.481 22.1442 142.008 23.4363C142.163 23.817 142.406 27.7026 142.548 32.0711C142.786 39.4065 142.873 40.1223 143.687 41.436C145.191 43.8606 147.124 44.5032 152.96 44.5179C160.401 44.5369 161.247 45.1078 161.247 50.1092V52.607L149.166 52.5048L137.085 52.4025L136.602 51.0024C135.861 48.852 134.565 47.281 132.567 46.1102C131.084 45.2418 130.277 45.0435 128.221 45.0435C124.22 45.0435 121.139 47.2342 119.839 51.0024C119.377 52.3433 119.28 52.4025 117.536 52.4025C115.792 52.4025 115.695 52.3433 115.232 51.0024C114.49 48.852 113.195 47.281 111.197 46.1102C109.714 45.2418 108.907 45.0435 106.851 45.0435C102.85 45.0435 99.7686 47.2342 98.4693 51.0024C97.998 52.3692 97.9382 52.4025 95.9714 52.4025C94.0045 52.4025 93.9447 52.3692 93.4734 51.0024C92.7317 48.852 91.4362 47.281 89.4379 46.1102C87.9556 45.2418 87.1482 45.0435 85.092 45.0435C81.0915 45.0435 78.01 47.2342 76.7107 51.0024C76.2479 52.3433 76.1508 52.4025 74.407 52.4025C72.6511 52.4025 72.5683 52.351 72.085 50.9493C70.7834 47.1745 67.8113 45.0811 63.7219 45.0578C59.7292 45.0354 56.6433 47.2237 55.3405 51.0024L54.8575 52.4025L35.394 52.5028L15.9305 52.6032V50.0631C15.9305 47.1385 16.6629 45.382 18.1114 44.8332C18.6491 44.6295 22.1939 44.4625 25.9884 44.4625C35.9562 44.4625 35.1348 44.9963 44.1733 32.6494C48.0719 27.3238 51.6369 22.6616 52.0954 22.2886C52.7504 21.7557 53.6705 21.6108 56.4001 21.6108C59.5679 21.6108 59.9553 21.6941 60.8253 22.5617ZM126.833 22.2886C126.665 22.6616 126.428 25.8926 126.306 29.4691C126.129 34.6549 125.966 36.0457 125.501 36.3382C125.18 36.5396 122.864 36.7069 120.353 36.7104L115.787 36.7162V34.321C115.787 31.0118 114.722 28.8877 112.533 27.8311C110.951 27.0681 110.23 27.0333 95.9714 27.0333C81.7124 27.0333 80.9913 27.0681 79.4099 27.8311C77.2204 28.8877 76.1554 31.0118 76.1554 34.321V36.7162H71.5204C67.8253 36.7162 66.7619 36.5926 66.275 36.1077C65.7757 35.6096 65.6646 34.4655 65.6646 29.8111C65.6646 26.6828 65.5018 23.5579 65.3033 22.8669L64.9419 21.6108H96.0401C125.515 21.6108 127.122 21.6461 126.833 22.2886ZM111.291 31.5149C111.709 31.9317 111.902 32.8488 111.902 34.4198V36.7162H95.9714H80.0409V34.4198C80.0409 30.6853 79.0381 30.9064 95.9714 30.9064C108.825 30.9064 110.758 30.9831 111.291 31.5149ZM185.504 45.071C185.968 45.5335 186.115 46.5107 186.115 49.1378V52.5962H183.911C180.732 52.5962 179.369 54.0428 180.929 55.7609C181.413 56.2935 182.137 56.4693 183.843 56.4693H186.115V60.9235V65.3776H183.911C180.732 65.3776 179.369 66.8243 180.929 68.5424C181.413 69.075 182.137 69.2508 183.843 69.2508H186.115V73.3176V77.3845H183.911C180.732 77.3845 179.369 78.8311 180.929 80.5492C181.413 81.0818 182.137 81.2576 183.843 81.2576H186.115V85.7118V90.1659H183.911C180.732 90.1659 179.369 91.6125 180.929 93.3307C181.413 93.8632 182.137 94.0391 183.843 94.0391H186.115V98.1059V102.173H183.911C180.732 102.173 179.369 103.619 180.929 105.337C181.413 105.87 182.137 106.046 183.843 106.046H186.115V110.5V114.954H183.911C180.732 114.954 179.369 116.401 180.929 118.119C181.413 118.651 182.137 118.827 183.843 118.827H186.115V122.286C186.115 126.711 185.897 126.961 182.035 126.961C179.954 126.961 179.01 126.795 178.565 126.353C178.018 125.807 177.955 121.588 177.955 85.7118C177.955 49.8354 178.018 45.6167 178.565 45.071C179.01 44.6283 179.954 44.4625 182.035 44.4625C184.115 44.4625 185.06 44.6283 185.504 45.071ZM66.0897 49.323C66.7296 49.6526 67.5945 50.4807 68.0114 51.1627C68.7334 52.3421 68.7703 53.224 68.7715 69.295C68.7722 78.8989 68.6055 87.0871 68.3848 88.2735C67.4341 93.3861 64.1096 97.8805 59.6825 100.04C55.6552 102.004 53.7758 102.159 33.8884 102.166C13.5934 102.174 13.5164 102.165 12.0551 99.7752C10.5864 97.3743 11.3203 94.3168 13.7154 92.8616C14.9008 92.1408 15.7894 92.1052 32.6645 92.104C52.6875 92.1025 53.4052 92.0204 55.9968 89.437C58.5495 86.8919 58.6708 85.9294 58.6708 68.193C58.6708 50.9315 58.6653 50.9726 61.1182 49.4822C62.6172 48.5708 64.513 48.51 66.0897 49.323ZM87.4598 49.323C88.0998 49.6526 88.9647 50.4807 89.3816 51.1627C90.1035 52.3421 90.1404 53.224 90.1416 69.295C90.1424 78.8989 89.9757 87.0871 89.755 88.2735C89.1617 91.4627 86.9186 95.6708 84.8391 97.4955C81.0352 100.833 76.5148 102.155 68.8701 102.166L64.1104 102.173L66.3932 99.8972C67.8514 98.4436 69.1499 96.6438 69.9872 94.9152C71.2951 92.2164 71.3048 92.2075 73.5984 91.5552C76.596 90.7023 78.5594 88.8018 79.4173 85.9213C79.9449 84.1509 80.0409 81.4172 80.0409 68.193C80.0409 50.9315 80.0355 50.9726 82.4884 49.4822C83.9874 48.5708 85.8831 48.51 87.4598 49.323ZM109.219 49.323C109.858 49.6526 110.723 50.4807 111.14 51.1627C111.862 52.3421 111.899 53.224 111.9 69.295C111.901 78.8989 111.734 87.0871 111.514 88.2735C110.92 91.4627 108.677 95.6708 106.598 97.4955C102.76 100.863 98.2879 102.155 90.4346 102.166L85.4806 102.173L87.7633 99.8972C89.2312 98.434 90.5146 96.6515 91.3574 94.9051C92.5323 92.4716 92.8101 92.161 94.0286 91.9212C96.3016 91.4743 98.4666 90.3503 99.5685 89.0446C101.661 86.5654 101.8 85.2733 101.8 68.193C101.8 50.9315 101.794 50.9726 104.247 49.4822C105.746 48.5708 107.642 48.51 109.219 49.323ZM130.589 49.323C131.229 49.6526 132.094 50.4807 132.51 51.1627C133.232 52.3421 133.269 53.224 133.27 69.295C133.271 78.8989 133.105 87.0871 132.884 88.2735C132.291 91.4627 130.047 95.6708 127.968 97.4955C124.164 100.833 119.644 102.155 111.999 102.166L107.239 102.173L109.522 99.8972C110.98 98.4436 112.279 96.6438 113.116 94.9152C114.424 92.2164 114.434 92.2075 116.727 91.5552C119.725 90.7023 121.688 88.8018 122.546 85.9213C123.074 84.1509 123.17 81.4172 123.17 68.193C123.17 50.9315 123.164 50.9726 125.617 49.4822C127.116 48.5708 129.012 48.51 130.589 49.323ZM54.7837 70.5096C54.7826 83.9088 54.7464 84.6083 53.9981 85.8318C52.5453 88.2076 52.3557 88.2293 33.2333 88.2293H15.9305V72.3493V56.4693H35.3579H54.7853L54.7837 70.5096ZM76.1539 70.5096C76.1527 83.8526 76.1138 84.6125 75.3779 85.8163C74.6987 86.9268 72.8248 88.2514 72.5598 87.8079C72.5073 87.7204 72.512 80.6329 72.5699 72.0588L72.676 56.4693H74.4155H76.1554L76.1539 70.5096ZM97.9141 70.5491C97.9141 84.5103 97.9067 84.6397 97.0399 85.9182C96.5588 86.627 95.5743 87.4469 94.852 87.7401C93.5655 88.2619 93.5429 88.2541 93.778 87.3795C93.9101 86.8884 94.0205 79.7328 94.0232 71.4779L94.0286 56.4693H95.9714H97.9141V70.5491ZM119.283 70.5096C119.282 83.8526 119.243 84.6125 118.507 85.8163C117.828 86.9268 115.954 88.2514 115.689 87.8079C115.636 87.7204 115.641 80.6329 115.699 72.0588L115.805 56.4693H117.544H119.284L119.283 70.5096ZM147.26 58.7933V61.1171H142.209H137.157V58.7933V56.4693H142.209H147.26V58.7933ZM161.159 89.4881C161.041 126.44 161.219 124.214 158.253 125.617C157.442 126.001 155.512 126.396 153.962 126.495L151.145 126.676V91.5726V56.4693H156.205H161.265L161.159 89.4881ZM32.4438 60.6981C29.0436 61.6354 26.2713 63.8741 24.8294 66.8479C23.5884 69.4069 23.5884 73.7425 24.8294 76.3015C25.8583 78.4229 28.4526 80.9443 30.5721 81.8816C32.8793 82.9022 37.4366 82.8007 39.6319 81.6798C42.0121 80.464 43.7793 78.7277 44.988 76.4162C46.3643 73.784 46.4179 69.5467 45.1093 66.8479C44.0699 64.7045 41.4522 62.1749 39.3817 61.3124C37.606 60.573 34.0423 60.2573 32.4438 60.6981ZM38.9508 65.3648C42.8802 68.0486 43.51 73.0178 40.3538 76.4313C38.5245 78.4093 36.7687 79.0929 34.1588 78.8431C29.5732 78.4039 26.4761 73.5857 27.9389 69.1668C28.4623 67.5861 30.4202 65.478 32.0552 64.7339C33.8115 63.9349 37.3282 64.2567 38.9508 65.3648ZM147.26 67.1206V69.2508H142.209H137.157V67.1206V64.9903H142.209H147.26V67.1206ZM174.07 85.7118V102.173H169.407H164.744L164.745 95.8788C164.746 92.4174 164.861 85.0099 165.002 79.4179L165.258 69.2508H169.663H174.07V85.7118ZM147.26 75.2542V77.3845H142.209H137.157V75.2542V73.124H142.209H147.26V75.2542ZM147.26 83.5815V85.9054H142.209H137.157V83.5815V81.2576H142.209H147.26V83.5815ZM147.26 91.7152V94.0391H141.237C137.925 94.0391 135.215 93.974 135.215 93.8942C135.215 93.7707 135.983 91.4913 136.569 89.8754C136.698 89.5206 138.149 89.3913 142.002 89.3913H147.26V91.7152ZM147.26 99.8488V102.173H137.91H128.56L130.972 99.8488L133.385 97.5249H140.322H147.26V99.8488ZM121.227 115.922V126.574L118.216 126.582C116.132 126.588 114.726 126.81 113.65 127.302C110.444 128.77 109.612 130.749 109.588 136.964C109.571 141.287 109.554 141.368 108.435 142.483L107.299 143.616H86.0805H64.8619L63.0291 142.676C62.0212 142.159 55.6886 137.622 48.9571 132.594C42.2255 127.566 35.5813 122.894 34.1922 122.211C31.7047 120.989 31.5625 120.966 24.7793 120.77C15.6305 120.505 16.1675 121.015 16.0016 112.427L15.878 106.046L65.93 106.012C93.4582 105.993 116.856 105.842 117.924 105.676C118.993 105.511 120.173 105.351 120.547 105.323C121.179 105.275 121.227 106.017 121.227 115.922ZM147.26 108.176V110.306H136.186H125.112V108.176V106.046H136.186H147.26V108.176ZM147.26 116.31V118.44H136.186H125.112V116.31V114.18H136.186H147.26V116.31ZM47.6574 115.663C46.8216 116.583 46.8433 117.391 47.725 118.186C48.6571 119.027 49.8457 119 50.6453 118.119C51.4811 117.198 51.4593 116.391 50.5777 115.595C49.6456 114.754 48.457 114.782 47.6574 115.663ZM55.8169 115.663C54.9811 116.583 55.0029 117.391 55.8845 118.186C56.8166 119.027 58.0052 119 58.8048 118.119C59.6406 117.198 59.6188 116.391 58.7372 115.595C57.8051 114.754 56.6165 114.782 55.8169 115.663ZM63.9764 115.663C63.1406 116.583 63.1624 117.391 64.044 118.186C64.9761 119.027 66.1647 119 66.9643 118.119C67.8001 117.198 67.7783 116.391 66.8967 115.595C65.9646 114.754 64.776 114.782 63.9764 115.663ZM72.1359 115.663C71.3001 116.583 71.3219 117.391 72.2035 118.186C73.1356 119.027 74.3242 119 75.1238 118.119C75.9596 117.198 75.9378 116.391 75.0562 115.595C74.1241 114.754 72.9355 114.782 72.1359 115.663ZM80.2954 115.663C79.4596 116.583 79.4814 117.391 80.363 118.186C81.2951 119.027 82.4837 119 83.2833 118.119C84.1191 117.198 84.0973 116.391 83.2157 115.595C82.2836 114.754 81.095 114.782 80.2954 115.663ZM88.4549 115.663C87.6191 116.583 87.6409 117.391 88.5225 118.186C89.4546 119.027 90.6432 119 91.4428 118.119C92.2786 117.198 92.2569 116.391 91.3752 115.595C90.4431 114.754 89.2545 114.782 88.4549 115.663ZM96.6144 115.663C95.7786 116.583 95.8004 117.391 96.682 118.186C97.6142 119.027 98.8027 119 99.6023 118.119C100.438 117.198 100.416 116.391 99.5347 115.595C98.6026 114.754 97.414 114.782 96.6144 115.663ZM104.774 115.663C103.938 116.583 103.96 117.391 104.842 118.186C105.774 119.027 106.962 119 107.762 118.119C108.598 117.198 108.576 116.391 107.694 115.595C106.762 114.754 105.574 114.782 104.774 115.663ZM147.26 124.443V126.574H136.186H125.112V124.443V122.313H136.186H147.26V124.443ZM84.958 134.641C84.1222 135.562 84.144 136.369 85.0256 137.165C85.6379 137.718 86.8351 137.806 93.7077 137.806C100.937 137.806 101.739 137.74 102.322 137.097C103.158 136.177 103.136 135.369 102.255 134.574C101.642 134.021 100.445 133.933 93.5725 133.933C86.3431 133.933 85.5412 133.999 84.958 134.641Z"/>
</mask>
<path fill-rule="evenodd" clip-rule="evenodd" d="M60.9574 0.432358C57.7153 1.64079 55.4738 4.30398 54.95 7.57061L54.6858 9.2167H52.6852C50.4708 9.2167 48.9571 10.0006 48.9571 11.1475C48.9571 12.4988 50.0298 13.0899 52.4816 13.0899H54.7853V15.3626V17.6358L53.2031 17.8473C50.3131 18.2334 49.0857 19.4876 41.6259 29.6748C37.7129 35.0182 34.2385 39.6164 33.9051 39.893C33.4726 40.2516 31.0605 40.455 25.4891 40.6025C16.3004 40.8458 15.1988 41.1862 13.3245 44.3649L12.2393 46.2055L12.1107 57.1472L11.9817 68.0889H7.93376H3.88548V58.466C3.88548 49.6355 3.82681 48.7904 3.17483 48.2021C2.25125 47.369 1.44112 47.3906 0.643047 48.2695C0.0613905 48.9101 0 50.9884 0 70.0928C0 90.0567 0.038855 91.2427 0.710655 91.8488C1.63423 92.6819 2.44436 92.6602 3.24243 91.7814C3.80427 91.1629 3.88548 89.8657 3.88548 81.5175V71.962H7.96523H12.045V80.6503V89.3386L10.8809 90.1647C7.57008 92.515 6.51479 97.8545 8.64675 101.47C9.23501 102.467 10.2406 103.656 10.8809 104.11L12.045 104.937V110.667C12.045 117.35 12.4631 120.028 13.7733 121.74C15.5194 124.022 16.91 124.398 24.4785 124.634C30.4692 124.821 31.4681 124.947 32.8747 125.69C33.7528 126.154 40.1347 130.75 47.0567 135.904C53.9786 141.057 60.6038 145.728 61.7791 146.284L63.9162 147.295L85.1977 147.405C100.106 147.481 106.967 147.383 108.108 147.077C110.172 146.523 112.458 144.278 113.023 142.251C113.259 141.404 113.453 138.856 113.454 136.59C113.456 133.113 113.572 132.326 114.198 131.555L114.941 130.641L136.054 130.426C152.561 130.257 157.465 130.095 158.528 129.682C161.127 128.671 162.752 127.308 163.759 125.293C164.725 123.362 164.744 123.154 164.744 114.685V106.046H169.407H174.07V115.994C174.07 125.247 174.125 126.057 174.87 127.59C176.003 129.924 178.014 130.834 182.035 130.834C186.055 130.834 188.066 129.924 189.2 127.59C189.992 125.958 190 125.541 190 85.7118C190 45.882 189.992 45.4653 189.2 43.8335C188.066 41.4999 186.055 40.5894 182.035 40.5894C178.014 40.5894 176.003 41.4999 174.87 43.8335C174.125 45.3665 174.07 46.1764 174.07 55.4298V65.3776H169.62H165.171L165.055 55.7915C164.952 47.2853 164.855 46.0381 164.198 44.7185C163.103 42.5197 160.912 41.235 157.935 41.046L155.491 40.8911L155.336 30.1856C155.189 20.079 155.13 19.352 154.273 17.1795C152.287 12.146 148.255 9.72641 141.187 9.32748L137.229 9.10399L136.983 7.46758C136.847 6.56784 136.233 5.03988 135.617 4.07236C132.215 -1.27532 124.227 -1.27532 120.824 4.07236C120.209 5.03988 119.591 6.59302 119.451 7.52413L119.196 9.2167H117.533C115.81 9.2167 115.399 8.82939 115.399 7.20421C115.399 5.86022 113.419 2.71133 111.946 1.71205C109.983 0.380458 107.637 -0.226855 105.627 0.0768013C101.82 0.651192 98.5366 3.7873 98.0695 7.29522L97.8139 9.2167H95.9212C94.0729 9.2167 94.0286 9.1892 94.0286 8.04236C94.0286 2.84883 87.7419 -1.27571 82.4814 0.466055C79.5844 1.42505 76.544 4.88999 76.544 7.23287C76.544 8.82745 76.1251 9.2167 74.4097 9.2167H72.7467L72.486 7.48423C72.1363 5.15801 70.1368 2.27676 68.0954 1.15703C66.0706 0.0469799 62.8651 -0.278756 60.9574 0.432358ZM66.0897 4.39422C68.3378 5.55269 68.7699 6.87654 68.7715 12.6057L68.773 17.7377H63.7219H58.6708V12.6832C58.6708 7.00667 59.0267 5.82419 61.1182 4.55341C62.6172 3.64205 64.513 3.58124 66.0897 4.39422ZM88.8563 5.48181L90.1432 6.88157V12.3094V17.7377H85.092H80.0409V12.7932C80.0409 7.2867 80.4415 5.97719 82.5665 4.54063C83.4656 3.93293 84.1712 3.79001 85.6508 3.91705C87.2527 4.05455 87.7819 4.31289 88.8563 5.48181ZM109.386 4.5751C111.461 5.85363 111.902 7.30375 111.902 12.8579V17.7377H106.851H101.8V12.4016C101.8 6.52834 101.989 5.92567 104.273 4.53714C105.848 3.57969 107.794 3.59441 109.386 4.5751ZM130.589 4.39422C132.837 5.55269 133.269 6.87654 133.27 12.6057L133.272 17.7377H128.221H123.17V12.6832C123.17 7.00667 123.526 5.82419 125.617 4.55341C127.116 3.64205 129.012 3.58124 130.589 4.39422ZM76.1554 15.4138V17.7377H74.407H72.6585V15.4138V13.0899H74.407H76.1554V15.4138ZM97.9141 15.4138V17.7377H95.9714H94.0286V15.4138V13.0899H95.9714H97.9141V15.4138ZM119.284 15.4138V17.7377H117.536H115.787V15.4138V13.0899H117.536H119.284V15.4138ZM146.483 14.0392C148.366 14.9955 149.523 16.1156 150.503 17.9313C151.29 19.39 151.347 20.0984 151.465 30.0365C151.604 41.8458 151.723 41.3702 148.837 40.5956C147.807 40.319 147.093 39.8558 146.86 39.3108C146.659 38.8426 146.357 34.8695 146.191 30.4819C145.902 22.8859 145.842 22.4381 144.929 21.11C143.706 19.3307 141.601 18.1544 139.115 17.8608L137.157 17.6296V15.3092V12.9884L141.14 13.1685C143.899 13.2932 145.54 13.5605 146.483 14.0392ZM60.8253 22.5617C61.757 23.4905 61.7791 23.6524 61.7791 29.6047C61.7791 36.9362 62.2644 38.4552 65.0336 39.7915C66.6581 40.5754 67.1963 40.5894 95.9714 40.5894C124.746 40.5894 125.285 40.5754 126.909 39.7915C129.661 38.4638 130.164 36.9176 130.164 29.7859V23.8751L131.299 22.743C132.389 21.6569 132.58 21.6108 135.981 21.6108C139.72 21.6108 141.481 22.1442 142.008 23.4363C142.163 23.817 142.406 27.7026 142.548 32.0711C142.786 39.4065 142.873 40.1223 143.687 41.436C145.191 43.8606 147.124 44.5032 152.96 44.5179C160.401 44.5369 161.247 45.1078 161.247 50.1092V52.607L149.166 52.5048L137.085 52.4025L136.602 51.0024C135.861 48.852 134.565 47.281 132.567 46.1102C131.084 45.2418 130.277 45.0435 128.221 45.0435C124.22 45.0435 121.139 47.2342 119.839 51.0024C119.377 52.3433 119.28 52.4025 117.536 52.4025C115.792 52.4025 115.695 52.3433 115.232 51.0024C114.49 48.852 113.195 47.281 111.197 46.1102C109.714 45.2418 108.907 45.0435 106.851 45.0435C102.85 45.0435 99.7686 47.2342 98.4693 51.0024C97.998 52.3692 97.9382 52.4025 95.9714 52.4025C94.0045 52.4025 93.9447 52.3692 93.4734 51.0024C92.7317 48.852 91.4362 47.281 89.4379 46.1102C87.9556 45.2418 87.1482 45.0435 85.092 45.0435C81.0915 45.0435 78.01 47.2342 76.7107 51.0024C76.2479 52.3433 76.1508 52.4025 74.407 52.4025C72.6511 52.4025 72.5683 52.351 72.085 50.9493C70.7834 47.1745 67.8113 45.0811 63.7219 45.0578C59.7292 45.0354 56.6433 47.2237 55.3405 51.0024L54.8575 52.4025L35.394 52.5028L15.9305 52.6032V50.0631C15.9305 47.1385 16.6629 45.382 18.1114 44.8332C18.6491 44.6295 22.1939 44.4625 25.9884 44.4625C35.9562 44.4625 35.1348 44.9963 44.1733 32.6494C48.0719 27.3238 51.6369 22.6616 52.0954 22.2886C52.7504 21.7557 53.6705 21.6108 56.4001 21.6108C59.5679 21.6108 59.9553 21.6941 60.8253 22.5617ZM126.833 22.2886C126.665 22.6616 126.428 25.8926 126.306 29.4691C126.129 34.6549 125.966 36.0457 125.501 36.3382C125.18 36.5396 122.864 36.7069 120.353 36.7104L115.787 36.7162V34.321C115.787 31.0118 114.722 28.8877 112.533 27.8311C110.951 27.0681 110.23 27.0333 95.9714 27.0333C81.7124 27.0333 80.9913 27.0681 79.4099 27.8311C77.2204 28.8877 76.1554 31.0118 76.1554 34.321V36.7162H71.5204C67.8253 36.7162 66.7619 36.5926 66.275 36.1077C65.7757 35.6096 65.6646 34.4655 65.6646 29.8111C65.6646 26.6828 65.5018 23.5579 65.3033 22.8669L64.9419 21.6108H96.0401C125.515 21.6108 127.122 21.6461 126.833 22.2886ZM111.291 31.5149C111.709 31.9317 111.902 32.8488 111.902 34.4198V36.7162H95.9714H80.0409V34.4198C80.0409 30.6853 79.0381 30.9064 95.9714 30.9064C108.825 30.9064 110.758 30.9831 111.291 31.5149ZM185.504 45.071C185.968 45.5335 186.115 46.5107 186.115 49.1378V52.5962H183.911C180.732 52.5962 179.369 54.0428 180.929 55.7609C181.413 56.2935 182.137 56.4693 183.843 56.4693H186.115V60.9235V65.3776H183.911C180.732 65.3776 179.369 66.8243 180.929 68.5424C181.413 69.075 182.137 69.2508 183.843 69.2508H186.115V73.3176V77.3845H183.911C180.732 77.3845 179.369 78.8311 180.929 80.5492C181.413 81.0818 182.137 81.2576 183.843 81.2576H186.115V85.7118V90.1659H183.911C180.732 90.1659 179.369 91.6125 180.929 93.3307C181.413 93.8632 182.137 94.0391 183.843 94.0391H186.115V98.1059V102.173H183.911C180.732 102.173 179.369 103.619 180.929 105.337C181.413 105.87 182.137 106.046 183.843 106.046H186.115V110.5V114.954H183.911C180.732 114.954 179.369 116.401 180.929 118.119C181.413 118.651 182.137 118.827 183.843 118.827H186.115V122.286C186.115 126.711 185.897 126.961 182.035 126.961C179.954 126.961 179.01 126.795 178.565 126.353C178.018 125.807 177.955 121.588 177.955 85.7118C177.955 49.8354 178.018 45.6167 178.565 45.071C179.01 44.6283 179.954 44.4625 182.035 44.4625C184.115 44.4625 185.06 44.6283 185.504 45.071ZM66.0897 49.323C66.7296 49.6526 67.5945 50.4807 68.0114 51.1627C68.7334 52.3421 68.7703 53.224 68.7715 69.295C68.7722 78.8989 68.6055 87.0871 68.3848 88.2735C67.4341 93.3861 64.1096 97.8805 59.6825 100.04C55.6552 102.004 53.7758 102.159 33.8884 102.166C13.5934 102.174 13.5164 102.165 12.0551 99.7752C10.5864 97.3743 11.3203 94.3168 13.7154 92.8616C14.9008 92.1408 15.7894 92.1052 32.6645 92.104C52.6875 92.1025 53.4052 92.0204 55.9968 89.437C58.5495 86.8919 58.6708 85.9294 58.6708 68.193C58.6708 50.9315 58.6653 50.9726 61.1182 49.4822C62.6172 48.5708 64.513 48.51 66.0897 49.323ZM87.4598 49.323C88.0998 49.6526 88.9647 50.4807 89.3816 51.1627C90.1035 52.3421 90.1404 53.224 90.1416 69.295C90.1424 78.8989 89.9757 87.0871 89.755 88.2735C89.1617 91.4627 86.9186 95.6708 84.8391 97.4955C81.0352 100.833 76.5148 102.155 68.8701 102.166L64.1104 102.173L66.3932 99.8972C67.8514 98.4436 69.1499 96.6438 69.9872 94.9152C71.2951 92.2164 71.3048 92.2075 73.5984 91.5552C76.596 90.7023 78.5594 88.8018 79.4173 85.9213C79.9449 84.1509 80.0409 81.4172 80.0409 68.193C80.0409 50.9315 80.0355 50.9726 82.4884 49.4822C83.9874 48.5708 85.8831 48.51 87.4598 49.323ZM109.219 49.323C109.858 49.6526 110.723 50.4807 111.14 51.1627C111.862 52.3421 111.899 53.224 111.9 69.295C111.901 78.8989 111.734 87.0871 111.514 88.2735C110.92 91.4627 108.677 95.6708 106.598 97.4955C102.76 100.863 98.2879 102.155 90.4346 102.166L85.4806 102.173L87.7633 99.8972C89.2312 98.434 90.5146 96.6515 91.3574 94.9051C92.5323 92.4716 92.8101 92.161 94.0286 91.9212C96.3016 91.4743 98.4666 90.3503 99.5685 89.0446C101.661 86.5654 101.8 85.2733 101.8 68.193C101.8 50.9315 101.794 50.9726 104.247 49.4822C105.746 48.5708 107.642 48.51 109.219 49.323ZM130.589 49.323C131.229 49.6526 132.094 50.4807 132.51 51.1627C133.232 52.3421 133.269 53.224 133.27 69.295C133.271 78.8989 133.105 87.0871 132.884 88.2735C132.291 91.4627 130.047 95.6708 127.968 97.4955C124.164 100.833 119.644 102.155 111.999 102.166L107.239 102.173L109.522 99.8972C110.98 98.4436 112.279 96.6438 113.116 94.9152C114.424 92.2164 114.434 92.2075 116.727 91.5552C119.725 90.7023 121.688 88.8018 122.546 85.9213C123.074 84.1509 123.17 81.4172 123.17 68.193C123.17 50.9315 123.164 50.9726 125.617 49.4822C127.116 48.5708 129.012 48.51 130.589 49.323ZM54.7837 70.5096C54.7826 83.9088 54.7464 84.6083 53.9981 85.8318C52.5453 88.2076 52.3557 88.2293 33.2333 88.2293H15.9305V72.3493V56.4693H35.3579H54.7853L54.7837 70.5096ZM76.1539 70.5096C76.1527 83.8526 76.1138 84.6125 75.3779 85.8163C74.6987 86.9268 72.8248 88.2514 72.5598 87.8079C72.5073 87.7204 72.512 80.6329 72.5699 72.0588L72.676 56.4693H74.4155H76.1554L76.1539 70.5096ZM97.9141 70.5491C97.9141 84.5103 97.9067 84.6397 97.0399 85.9182C96.5588 86.627 95.5743 87.4469 94.852 87.7401C93.5655 88.2619 93.5429 88.2541 93.778 87.3795C93.9101 86.8884 94.0205 79.7328 94.0232 71.4779L94.0286 56.4693H95.9714H97.9141V70.5491ZM119.283 70.5096C119.282 83.8526 119.243 84.6125 118.507 85.8163C117.828 86.9268 115.954 88.2514 115.689 87.8079C115.636 87.7204 115.641 80.6329 115.699 72.0588L115.805 56.4693H117.544H119.284L119.283 70.5096ZM147.26 58.7933V61.1171H142.209H137.157V58.7933V56.4693H142.209H147.26V58.7933ZM161.159 89.4881C161.041 126.44 161.219 124.214 158.253 125.617C157.442 126.001 155.512 126.396 153.962 126.495L151.145 126.676V91.5726V56.4693H156.205H161.265L161.159 89.4881ZM32.4438 60.6981C29.0436 61.6354 26.2713 63.8741 24.8294 66.8479C23.5884 69.4069 23.5884 73.7425 24.8294 76.3015C25.8583 78.4229 28.4526 80.9443 30.5721 81.8816C32.8793 82.9022 37.4366 82.8007 39.6319 81.6798C42.0121 80.464 43.7793 78.7277 44.988 76.4162C46.3643 73.784 46.4179 69.5467 45.1093 66.8479C44.0699 64.7045 41.4522 62.1749 39.3817 61.3124C37.606 60.573 34.0423 60.2573 32.4438 60.6981ZM38.9508 65.3648C42.8802 68.0486 43.51 73.0178 40.3538 76.4313C38.5245 78.4093 36.7687 79.0929 34.1588 78.8431C29.5732 78.4039 26.4761 73.5857 27.9389 69.1668C28.4623 67.5861 30.4202 65.478 32.0552 64.7339C33.8115 63.9349 37.3282 64.2567 38.9508 65.3648ZM147.26 67.1206V69.2508H142.209H137.157V67.1206V64.9903H142.209H147.26V67.1206ZM174.07 85.7118V102.173H169.407H164.744L164.745 95.8788C164.746 92.4174 164.861 85.0099 165.002 79.4179L165.258 69.2508H169.663H174.07V85.7118ZM147.26 75.2542V77.3845H142.209H137.157V75.2542V73.124H142.209H147.26V75.2542ZM147.26 83.5815V85.9054H142.209H137.157V83.5815V81.2576H142.209H147.26V83.5815ZM147.26 91.7152V94.0391H141.237C137.925 94.0391 135.215 93.974 135.215 93.8942C135.215 93.7707 135.983 91.4913 136.569 89.8754C136.698 89.5206 138.149 89.3913 142.002 89.3913H147.26V91.7152ZM147.26 99.8488V102.173H137.91H128.56L130.972 99.8488L133.385 97.5249H140.322H147.26V99.8488ZM121.227 115.922V126.574L118.216 126.582C116.132 126.588 114.726 126.81 113.65 127.302C110.444 128.77 109.612 130.749 109.588 136.964C109.571 141.287 109.554 141.368 108.435 142.483L107.299 143.616H86.0805H64.8619L63.0291 142.676C62.0212 142.159 55.6886 137.622 48.9571 132.594C42.2255 127.566 35.5813 122.894 34.1922 122.211C31.7047 120.989 31.5625 120.966 24.7793 120.77C15.6305 120.505 16.1675 121.015 16.0016 112.427L15.878 106.046L65.93 106.012C93.4582 105.993 116.856 105.842 117.924 105.676C118.993 105.511 120.173 105.351 120.547 105.323C121.179 105.275 121.227 106.017 121.227 115.922ZM147.26 108.176V110.306H136.186H125.112V108.176V106.046H136.186H147.26V108.176ZM147.26 116.31V118.44H136.186H125.112V116.31V114.18H136.186H147.26V116.31ZM47.6574 115.663C46.8216 116.583 46.8433 117.391 47.725 118.186C48.6571 119.027 49.8457 119 50.6453 118.119C51.4811 117.198 51.4593 116.391 50.5777 115.595C49.6456 114.754 48.457 114.782 47.6574 115.663ZM55.8169 115.663C54.9811 116.583 55.0029 117.391 55.8845 118.186C56.8166 119.027 58.0052 119 58.8048 118.119C59.6406 117.198 59.6188 116.391 58.7372 115.595C57.8051 114.754 56.6165 114.782 55.8169 115.663ZM63.9764 115.663C63.1406 116.583 63.1624 117.391 64.044 118.186C64.9761 119.027 66.1647 119 66.9643 118.119C67.8001 117.198 67.7783 116.391 66.8967 115.595C65.9646 114.754 64.776 114.782 63.9764 115.663ZM72.1359 115.663C71.3001 116.583 71.3219 117.391 72.2035 118.186C73.1356 119.027 74.3242 119 75.1238 118.119C75.9596 117.198 75.9378 116.391 75.0562 115.595C74.1241 114.754 72.9355 114.782 72.1359 115.663ZM80.2954 115.663C79.4596 116.583 79.4814 117.391 80.363 118.186C81.2951 119.027 82.4837 119 83.2833 118.119C84.1191 117.198 84.0973 116.391 83.2157 115.595C82.2836 114.754 81.095 114.782 80.2954 115.663ZM88.4549 115.663C87.6191 116.583 87.6409 117.391 88.5225 118.186C89.4546 119.027 90.6432 119 91.4428 118.119C92.2786 117.198 92.2569 116.391 91.3752 115.595C90.4431 114.754 89.2545 114.782 88.4549 115.663ZM96.6144 115.663C95.7786 116.583 95.8004 117.391 96.682 118.186C97.6142 119.027 98.8027 119 99.6023 118.119C100.438 117.198 100.416 116.391 99.5347 115.595C98.6026 114.754 97.414 114.782 96.6144 115.663ZM104.774 115.663C103.938 116.583 103.96 117.391 104.842 118.186C105.774 119.027 106.962 119 107.762 118.119C108.598 117.198 108.576 116.391 107.694 115.595C106.762 114.754 105.574 114.782 104.774 115.663ZM147.26 124.443V126.574H136.186H125.112V124.443V122.313H136.186H147.26V124.443ZM84.958 134.641C84.1222 135.562 84.144 136.369 85.0256 137.165C85.6379 137.718 86.8351 137.806 93.7077 137.806C100.937 137.806 101.739 137.74 102.322 137.097C103.158 136.177 103.136 135.369 102.255 134.574C101.642 134.021 100.445 133.933 93.5725 133.933C86.3431 133.933 85.5412 133.999 84.958 134.641Z" fill="#F24210" stroke="#FBF8F8" stroke-width="2" mask="url(#path-1-inside-1_77_245)"/>
</svg>
