<svg viewBox="0 0 171 171" fill="none" xmlns="http://www.w3.org/2000/svg">
<mask id="path-1-inside-1_77_249" fill="white">
<path fill-rule="evenodd" clip-rule="evenodd" d="M15.1246 0.874594C14.555 1.44388 14.25 2.15246 14.25 2.90629C14.25 3.94155 15.152 4.96826 22.8 12.6398L31.35 21.2158V24.2239V27.2325L29.3126 29.2912L27.2756 31.35H24.2457H21.2158L12.6398 22.8C4.96826 15.152 3.94155 14.25 2.90629 14.25C2.15246 14.25 1.44388 14.555 0.874594 15.1246L0 15.9988V27.1391V38.2794L7.93547 46.2145L15.8706 54.15H25.8388H35.8067L49.5187 67.8656C57.0606 75.4092 63.3979 81.5812 63.6024 81.5812C64.0659 81.5812 67.3312 78.2966 67.3312 77.8303C67.3312 77.6418 61.4407 71.5956 54.2408 64.394L41.1501 51.2996L46.2252 46.2249L51.3 41.1501L65.9052 55.7521L80.5104 70.354L82.557 68.307L84.604 66.26L69.3768 51.03L54.15 35.7999V25.8352V15.8706L46.2145 7.93547L38.2794 0H27.1391H15.9988L15.1246 0.874594ZM123.37 3.67009C119.329 7.71139 118.959 8.58064 120.465 10.4948L121.229 11.4666L119.073 13.623L116.917 15.7794L115.945 15.0145C113.666 13.2222 114.282 12.7299 96.2808 30.7308C81.2364 45.7753 79.8 47.3136 79.8 48.3812C79.8 49.1393 80.0993 49.8504 80.6504 50.4015C81.4826 51.2337 81.598 51.2473 86.0935 51.0474C88.9431 50.9206 91.5915 51.0008 93.0721 51.2587C95.9677 51.7628 100.106 53.0093 100.106 53.3773C100.106 53.9013 96.6845 59.5597 94.4109 62.7955C91.4341 67.032 84.127 74.3276 79.8 77.3832C73.3932 81.9072 67.4346 84.8313 59.85 87.1722C56.4108 88.2339 54.9523 88.4836 50.7656 88.7276C43.1746 89.1701 37.6378 91.0871 32.4187 95.0803C31.1452 96.0546 23.3301 103.64 15.0516 111.937C1.05628 125.964 0 127.109 0 128.249C0 129.365 0.588881 130.064 6.51225 135.988C14.6679 144.143 13.924 143.974 19.1214 138.86L22.8203 135.22L29.3005 141.699L35.7803 148.18L32.1402 151.879C27.0258 157.076 26.8566 156.332 35.0122 164.488C40.9356 170.411 41.6353 171 42.7511 171C43.8914 171 45.0361 169.944 59.0627 155.948C67.3597 147.67 74.9454 139.855 75.9197 138.581C79.9094 133.367 81.8278 127.83 82.2763 120.234C82.5118 116.248 82.7939 114.514 83.6817 111.599C88.0842 97.1366 95.9798 85.7383 107.625 77.0323C110.581 74.8228 116.957 70.8938 117.586 70.8938C117.948 70.8938 119.259 75.1566 119.731 77.8677C120 79.4117 120.082 82.0073 119.953 84.9065C119.753 89.402 119.766 89.5174 120.598 90.3496C121.15 90.9007 121.861 91.2 122.619 91.2C123.686 91.2 125.225 89.7636 140.269 74.7192C158.27 56.7182 157.778 57.3342 155.985 55.0552L155.221 54.0834L157.377 51.927L159.533 49.7706L160.505 50.5355C162.419 52.041 163.289 51.6709 167.33 47.6299L171 43.9595V38.4607V32.9617L154.519 16.4808L138.038 0H132.539H127.041L123.37 3.67009ZM42.1301 12.027L48.45 18.354V27.0825V35.8106L42.123 42.1301L35.796 48.45H27.075H18.354L12.027 42.1301L5.7 35.8106V29.9414V24.0722L12.2233 30.5609L18.7469 37.05H24.2282H29.7095L33.3799 33.3799L37.05 29.7095V24.2282V18.7469L30.5609 12.2233L24.0722 5.7H29.9414H35.8106L42.1301 12.027ZM150.425 20.572L165.3 35.4437V38.4903V41.5366L163.867 42.9363L162.434 44.3357L144.549 26.4512L126.664 8.56639L128.064 7.13319L129.463 5.7H132.507H135.55L150.425 20.572ZM140.54 30.6364L155.498 45.5979L153.273 47.8234L151.047 50.0492L136.003 35.0048L120.959 19.9607L123.079 17.8178C124.245 16.6394 125.285 15.675 125.39 15.675C125.495 15.675 132.313 22.4078 140.54 30.6364ZM131.99 39.1871L149.8 56.9993L137.88 68.923L125.961 80.8463L125.377 77.3661C124.346 71.2211 122.136 65.8261 118.786 61.275C112.358 52.543 103.355 47.0129 93.1711 45.5405L90.1038 45.097L101.961 33.236C108.482 26.7123 113.9 21.375 113.999 21.375C114.099 21.375 122.195 29.3906 131.99 39.1871ZM119.7 40.3656C117.952 40.9167 114.969 44.0047 114.433 45.8194C113.446 49.1596 114.142 51.8226 116.66 54.3402C120.306 57.9865 125.337 57.9088 128.713 54.1543C131.907 50.6014 131.907 46.2986 128.713 42.7457C126.407 40.1814 123.076 39.3015 119.7 40.3656ZM124.525 46.4746C126.293 48.2416 125.041 51.3 122.55 51.3C121.085 51.3 119.7 49.9145 119.7 48.45C119.7 46.9855 121.085 45.6 122.55 45.6C123.244 45.6 123.974 45.9231 124.525 46.4746ZM51.0855 51.5023L49.3909 53.486L58.5376 62.6327L67.6847 71.7797L69.7313 69.7331L71.778 67.6861L62.6993 58.6024C57.7061 53.6064 53.4318 49.5187 53.2006 49.5187C52.9694 49.5187 52.0175 50.4115 51.0855 51.5023ZM109.687 59.6566C110.94 60.8407 112.654 62.6797 113.496 63.7431L115.027 65.6768L112.109 67.3134C98.1896 75.1192 87.2456 87.3055 81.1765 101.757L79.3426 106.125L78.0572 104.006C75.1135 99.1561 71.6429 95.6781 67.0135 92.9392L64.8432 91.6553L68.1357 90.3154C78.007 86.2987 87.5495 79.5976 94.4739 71.8204C97.7254 68.1684 102.293 61.6822 104.198 58.0096L105.246 55.9907L106.327 56.7474C106.922 57.1632 108.434 58.4724 109.687 59.6566ZM102.497 88.273C101.574 89.2107 100.819 90.1316 100.819 90.3197C100.819 90.5082 106.709 96.5544 113.909 103.756L127 116.85L121.925 121.925L116.85 127L105.181 115.334C98.7628 108.918 93.346 103.669 93.1441 103.669C92.6809 103.669 89.4187 106.957 89.4187 107.424C89.4187 107.614 94.9495 113.299 101.709 120.056L114 132.343V142.311V152.279L121.935 160.215L129.871 168.15H141.075H152.279L160.215 160.215L168.15 152.279V141.075V129.871L160.215 121.935L152.279 114H142.311H132.343L118.631 100.284C111.089 92.7408 104.752 86.5687 104.548 86.5687C104.343 86.5687 103.421 87.3357 102.497 88.273ZM56.7517 94.9706C58.1617 95.2812 60.8308 96.2623 62.6825 97.1511C65.5226 98.5142 66.5336 99.2509 69.1413 101.859C71.7491 104.466 72.4858 105.477 73.8488 108.317C76.6379 114.128 77.3187 119.923 75.8816 125.61C75.1388 128.549 73.2525 132.763 71.9247 134.452L71.1513 135.435L68.9173 133.221L66.6836 131.007L67.8727 128.827C71.9116 121.422 70.6063 112.288 64.6594 106.341C58.6957 100.377 49.5982 99.077 42.1732 103.127L39.9933 104.316L37.7746 102.078L35.5559 99.8391L36.7572 98.9224C41.6332 95.2035 50.1564 93.5188 56.7517 94.9706ZM98.1105 98.5273L96.4159 100.511L105.563 109.658L114.71 118.805L116.756 116.758L118.803 114.711L109.724 105.627C104.731 100.631 100.457 96.5437 100.226 96.5437C99.9944 96.5437 99.0425 97.4365 98.1105 98.5273ZM34.7272 110.573C28.7875 121.462 34.609 134.842 46.6848 138.056C50.8821 139.173 56.4817 138.45 60.4268 136.282L62.6067 135.084L64.8208 137.317L67.0349 139.551L66.0516 140.325C64.3633 141.652 60.1489 143.539 57.2102 144.282C51.5234 145.719 45.7282 145.038 39.9175 142.249C37.0774 140.886 36.0664 140.149 33.4586 137.541C30.8509 134.934 30.1142 133.923 28.7512 131.083C26.0565 125.468 25.3297 119.831 26.5809 114.248C27.2282 111.36 29.1145 107.003 30.51 105.174L31.4391 103.956L33.6777 106.175L35.9164 108.393L34.7272 110.573ZM56.7061 107.666C59.5194 108.955 61.7663 111.147 63.1453 113.949C64.2062 116.104 64.3031 116.585 64.3031 119.7C64.3031 122.815 64.2062 123.296 63.1453 125.451C61.7727 128.239 59.5369 130.428 56.7061 131.755C54.9615 132.573 54.2202 132.703 51.3 132.703C48.3798 132.703 47.6385 132.573 45.8939 131.755C43.0631 130.428 40.8273 128.239 39.4547 125.451C38.3941 123.297 38.2969 122.814 38.2969 119.707C38.2969 116.787 38.4273 116.037 39.2356 114.313C40.8893 110.787 43.7899 108.22 47.4831 107.015C49.8693 106.236 54.2626 106.546 56.7061 107.666ZM20.4844 119.698V124.682L17.997 122.194L15.5097 119.706L17.9874 117.209C19.3501 115.836 20.4694 114.713 20.4748 114.713C20.4801 114.713 20.4844 116.956 20.4844 119.698ZM156.123 126.02L162.45 132.339V141.075V149.811L156.123 156.13L149.796 162.45H141.075H132.354L126.027 156.13L119.7 149.811V141.082V132.354L126.02 126.027L132.339 119.7H141.068H149.796L156.123 126.02ZM15.1421 127.539L18.6928 131.103L16.4709 133.325L14.2486 135.547L10.6045 131.903L6.96041 128.259L9.07974 126.117C10.2457 124.939 11.2878 123.975 11.3954 123.975C11.5033 123.975 13.1894 125.579 15.1421 127.539ZM131.92 131.92L128.25 135.591V141.075V146.559L131.92 150.23L135.591 153.9H141.075H146.559L150.23 150.23L153.9 146.559V141.075V135.591L150.23 131.92L146.559 128.25H141.075H135.591L131.92 131.92ZM146.141 135.987L148.2 138.024V141.054V144.082L146.163 146.141L144.126 148.2H141.075H138.024L135.987 146.141L133.95 144.082V141.075V138.068L135.987 136.009L138.024 133.95H141.054H144.082L146.141 135.987ZM53.7905 153.006L51.3 155.497L48.8095 153.006L46.3186 150.516H51.3H56.2814L53.7905 153.006ZM43.642 156.039L47.1928 159.603L44.9709 161.825L42.7486 164.047L39.1045 160.403L35.4604 156.759L37.5797 154.617C38.7458 153.439 39.7878 152.475 39.8954 152.475C40.0033 152.475 41.6894 154.079 43.642 156.039Z"/>
</mask>
<path fill-rule="evenodd" clip-rule="evenodd" d="M15.1246 0.874594C14.555 1.44388 14.25 2.15246 14.25 2.90629C14.25 3.94155 15.152 4.96826 22.8 12.6398L31.35 21.2158V24.2239V27.2325L29.3126 29.2912L27.2756 31.35H24.2457H21.2158L12.6398 22.8C4.96826 15.152 3.94155 14.25 2.90629 14.25C2.15246 14.25 1.44388 14.555 0.874594 15.1246L0 15.9988V27.1391V38.2794L7.93547 46.2145L15.8706 54.15H25.8388H35.8067L49.5187 67.8656C57.0606 75.4092 63.3979 81.5812 63.6024 81.5812C64.0659 81.5812 67.3312 78.2966 67.3312 77.8303C67.3312 77.6418 61.4407 71.5956 54.2408 64.394L41.1501 51.2996L46.2252 46.2249L51.3 41.1501L65.9052 55.7521L80.5104 70.354L82.557 68.307L84.604 66.26L69.3768 51.03L54.15 35.7999V25.8352V15.8706L46.2145 7.93547L38.2794 0H27.1391H15.9988L15.1246 0.874594ZM123.37 3.67009C119.329 7.71139 118.959 8.58064 120.465 10.4948L121.229 11.4666L119.073 13.623L116.917 15.7794L115.945 15.0145C113.666 13.2222 114.282 12.7299 96.2808 30.7308C81.2364 45.7753 79.8 47.3136 79.8 48.3812C79.8 49.1393 80.0993 49.8504 80.6504 50.4015C81.4826 51.2337 81.598 51.2473 86.0935 51.0474C88.9431 50.9206 91.5915 51.0008 93.0721 51.2587C95.9677 51.7628 100.106 53.0093 100.106 53.3773C100.106 53.9013 96.6845 59.5597 94.4109 62.7955C91.4341 67.032 84.127 74.3276 79.8 77.3832C73.3932 81.9072 67.4346 84.8313 59.85 87.1722C56.4108 88.2339 54.9523 88.4836 50.7656 88.7276C43.1746 89.1701 37.6378 91.0871 32.4187 95.0803C31.1452 96.0546 23.3301 103.64 15.0516 111.937C1.05628 125.964 0 127.109 0 128.249C0 129.365 0.588881 130.064 6.51225 135.988C14.6679 144.143 13.924 143.974 19.1214 138.86L22.8203 135.22L29.3005 141.699L35.7803 148.18L32.1402 151.879C27.0258 157.076 26.8566 156.332 35.0122 164.488C40.9356 170.411 41.6353 171 42.7511 171C43.8914 171 45.0361 169.944 59.0627 155.948C67.3597 147.67 74.9454 139.855 75.9197 138.581C79.9094 133.367 81.8278 127.83 82.2763 120.234C82.5118 116.248 82.7939 114.514 83.6817 111.599C88.0842 97.1366 95.9798 85.7383 107.625 77.0323C110.581 74.8228 116.957 70.8938 117.586 70.8938C117.948 70.8938 119.259 75.1566 119.731 77.8677C120 79.4117 120.082 82.0073 119.953 84.9065C119.753 89.402 119.766 89.5174 120.598 90.3496C121.15 90.9007 121.861 91.2 122.619 91.2C123.686 91.2 125.225 89.7636 140.269 74.7192C158.27 56.7182 157.778 57.3342 155.985 55.0552L155.221 54.0834L157.377 51.927L159.533 49.7706L160.505 50.5355C162.419 52.041 163.289 51.6709 167.33 47.6299L171 43.9595V38.4607V32.9617L154.519 16.4808L138.038 0H132.539H127.041L123.37 3.67009ZM42.1301 12.027L48.45 18.354V27.0825V35.8106L42.123 42.1301L35.796 48.45H27.075H18.354L12.027 42.1301L5.7 35.8106V29.9414V24.0722L12.2233 30.5609L18.7469 37.05H24.2282H29.7095L33.3799 33.3799L37.05 29.7095V24.2282V18.7469L30.5609 12.2233L24.0722 5.7H29.9414H35.8106L42.1301 12.027ZM150.425 20.572L165.3 35.4437V38.4903V41.5366L163.867 42.9363L162.434 44.3357L144.549 26.4512L126.664 8.56639L128.064 7.13319L129.463 5.7H132.507H135.55L150.425 20.572ZM140.54 30.6364L155.498 45.5979L153.273 47.8234L151.047 50.0492L136.003 35.0048L120.959 19.9607L123.079 17.8178C124.245 16.6394 125.285 15.675 125.39 15.675C125.495 15.675 132.313 22.4078 140.54 30.6364ZM131.99 39.1871L149.8 56.9993L137.88 68.923L125.961 80.8463L125.377 77.3661C124.346 71.2211 122.136 65.8261 118.786 61.275C112.358 52.543 103.355 47.0129 93.1711 45.5405L90.1038 45.097L101.961 33.236C108.482 26.7123 113.9 21.375 113.999 21.375C114.099 21.375 122.195 29.3906 131.99 39.1871ZM119.7 40.3656C117.952 40.9167 114.969 44.0047 114.433 45.8194C113.446 49.1596 114.142 51.8226 116.66 54.3402C120.306 57.9865 125.337 57.9088 128.713 54.1543C131.907 50.6014 131.907 46.2986 128.713 42.7457C126.407 40.1814 123.076 39.3015 119.7 40.3656ZM124.525 46.4746C126.293 48.2416 125.041 51.3 122.55 51.3C121.085 51.3 119.7 49.9145 119.7 48.45C119.7 46.9855 121.085 45.6 122.55 45.6C123.244 45.6 123.974 45.9231 124.525 46.4746ZM51.0855 51.5023L49.3909 53.486L58.5376 62.6327L67.6847 71.7797L69.7313 69.7331L71.778 67.6861L62.6993 58.6024C57.7061 53.6064 53.4318 49.5187 53.2006 49.5187C52.9694 49.5187 52.0175 50.4115 51.0855 51.5023ZM109.687 59.6566C110.94 60.8407 112.654 62.6797 113.496 63.7431L115.027 65.6768L112.109 67.3134C98.1896 75.1192 87.2456 87.3055 81.1765 101.757L79.3426 106.125L78.0572 104.006C75.1135 99.1561 71.6429 95.6781 67.0135 92.9392L64.8432 91.6553L68.1357 90.3154C78.007 86.2987 87.5495 79.5976 94.4739 71.8204C97.7254 68.1684 102.293 61.6822 104.198 58.0096L105.246 55.9907L106.327 56.7474C106.922 57.1632 108.434 58.4724 109.687 59.6566ZM102.497 88.273C101.574 89.2107 100.819 90.1316 100.819 90.3197C100.819 90.5082 106.709 96.5544 113.909 103.756L127 116.85L121.925 121.925L116.85 127L105.181 115.334C98.7628 108.918 93.346 103.669 93.1441 103.669C92.6809 103.669 89.4187 106.957 89.4187 107.424C89.4187 107.614 94.9495 113.299 101.709 120.056L114 132.343V142.311V152.279L121.935 160.215L129.871 168.15H141.075H152.279L160.215 160.215L168.15 152.279V141.075V129.871L160.215 121.935L152.279 114H142.311H132.343L118.631 100.284C111.089 92.7408 104.752 86.5687 104.548 86.5687C104.343 86.5687 103.421 87.3357 102.497 88.273ZM56.7517 94.9706C58.1617 95.2812 60.8308 96.2623 62.6825 97.1511C65.5226 98.5142 66.5336 99.2509 69.1413 101.859C71.7491 104.466 72.4858 105.477 73.8488 108.317C76.6379 114.128 77.3187 119.923 75.8816 125.61C75.1388 128.549 73.2525 132.763 71.9247 134.452L71.1513 135.435L68.9173 133.221L66.6836 131.007L67.8727 128.827C71.9116 121.422 70.6063 112.288 64.6594 106.341C58.6957 100.377 49.5982 99.077 42.1732 103.127L39.9933 104.316L37.7746 102.078L35.5559 99.8391L36.7572 98.9224C41.6332 95.2035 50.1564 93.5188 56.7517 94.9706ZM98.1105 98.5273L96.4159 100.511L105.563 109.658L114.71 118.805L116.756 116.758L118.803 114.711L109.724 105.627C104.731 100.631 100.457 96.5437 100.226 96.5437C99.9944 96.5437 99.0425 97.4365 98.1105 98.5273ZM34.7272 110.573C28.7875 121.462 34.609 134.842 46.6848 138.056C50.8821 139.173 56.4817 138.45 60.4268 136.282L62.6067 135.084L64.8208 137.317L67.0349 139.551L66.0516 140.325C64.3633 141.652 60.1489 143.539 57.2102 144.282C51.5234 145.719 45.7282 145.038 39.9175 142.249C37.0774 140.886 36.0664 140.149 33.4586 137.541C30.8509 134.934 30.1142 133.923 28.7512 131.083C26.0565 125.468 25.3297 119.831 26.5809 114.248C27.2282 111.36 29.1145 107.003 30.51 105.174L31.4391 103.956L33.6777 106.175L35.9164 108.393L34.7272 110.573ZM56.7061 107.666C59.5194 108.955 61.7663 111.147 63.1453 113.949C64.2062 116.104 64.3031 116.585 64.3031 119.7C64.3031 122.815 64.2062 123.296 63.1453 125.451C61.7727 128.239 59.5369 130.428 56.7061 131.755C54.9615 132.573 54.2202 132.703 51.3 132.703C48.3798 132.703 47.6385 132.573 45.8939 131.755C43.0631 130.428 40.8273 128.239 39.4547 125.451C38.3941 123.297 38.2969 122.814 38.2969 119.707C38.2969 116.787 38.4273 116.037 39.2356 114.313C40.8893 110.787 43.7899 108.22 47.4831 107.015C49.8693 106.236 54.2626 106.546 56.7061 107.666ZM20.4844 119.698V124.682L17.997 122.194L15.5097 119.706L17.9874 117.209C19.3501 115.836 20.4694 114.713 20.4748 114.713C20.4801 114.713 20.4844 116.956 20.4844 119.698ZM156.123 126.02L162.45 132.339V141.075V149.811L156.123 156.13L149.796 162.45H141.075H132.354L126.027 156.13L119.7 149.811V141.082V132.354L126.02 126.027L132.339 119.7H141.068H149.796L156.123 126.02ZM15.1421 127.539L18.6928 131.103L16.4709 133.325L14.2486 135.547L10.6045 131.903L6.96041 128.259L9.07974 126.117C10.2457 124.939 11.2878 123.975 11.3954 123.975C11.5033 123.975 13.1894 125.579 15.1421 127.539ZM131.92 131.92L128.25 135.591V141.075V146.559L131.92 150.23L135.591 153.9H141.075H146.559L150.23 150.23L153.9 146.559V141.075V135.591L150.23 131.92L146.559 128.25H141.075H135.591L131.92 131.92ZM146.141 135.987L148.2 138.024V141.054V144.082L146.163 146.141L144.126 148.2H141.075H138.024L135.987 146.141L133.95 144.082V141.075V138.068L135.987 136.009L138.024 133.95H141.054H144.082L146.141 135.987ZM53.7905 153.006L51.3 155.497L48.8095 153.006L46.3186 150.516H51.3H56.2814L53.7905 153.006ZM43.642 156.039L47.1928 159.603L44.9709 161.825L42.7486 164.047L39.1045 160.403L35.4604 156.759L37.5797 154.617C38.7458 153.439 39.7878 152.475 39.8954 152.475C40.0033 152.475 41.6894 154.079 43.642 156.039Z" fill="#F24210" stroke="white" stroke-width="4" mask="url(#path-1-inside-1_77_249)"/>
</svg>
